/* XPM */
static char *result[] = {
/* columns rows colors chars-per-pixel */
"64 64 218 2 ",
"   c #000000",
".  c #0C0603",
"X  c #140900",
"o  c #171407",
"O  c #000019",
"+  c #171615",
"@  c #0D1016",
"#  c #240F17",
"$  c #2A271C",
"%  c #322C18",
"&  c #32321E",
"*  c #292104",
"=  c #000025",
"-  c #00012B",
";  c #000926",
":  c #181E2A",
">  c #000132",
",  c #000C33",
"<  c #00003B",
"1  c #000B3B",
"2  c #08003D",
"3  c #011334",
"4  c #051A36",
"5  c #1C2534",
"6  c #142339",
"7  c #1A2539",
"8  c #0B233D",
"9  c #242424",
"0  c #2B2B2B",
"q  c #292928",
"w  c #3C3B2C",
"e  c #373628",
"r  c #232835",
"t  c #2A2E36",
"y  c #252C39",
"u  c #2D3035",
"i  c #2D323B",
"p  c #27313B",
"a  c #343434",
"s  c #3B3A34",
"d  c #34363A",
"f  c #3D3D3D",
"g  c #37383B",
"h  c #2E302A",
"j  c #413F3D",
"k  c #413E33",
"l  c #413D29",
"z  c #3F403D",
"x  c #484428",
"c  c #434235",
"v  c #43413D",
"b  c #4A4738",
"n  c #000241",
"m  c #001B43",
"M  c #001245",
"N  c #110058",
"B  c #0C2644",
"V  c #012449",
"C  c #042647",
"Z  c #182B46",
"A  c #1D324E",
"S  c #1C3350",
"D  c #242B4C",
"F  c #242947",
"G  c #2C3343",
"H  c #273348",
"J  c #333944",
"K  c #3B3D43",
"L  c #343C4B",
"P  c #373C49",
"I  c #22295C",
"U  c #222954",
"Y  c #2C3B52",
"T  c #263751",
"R  c #353F51",
"E  c #000067",
"W  c #000073",
"Q  c #00007C",
"!  c #181B70",
"~  c #241D78",
"^  c #212B69",
"/  c #293474",
"(  c #273070",
")  c #162A7A",
"_  c #3F4043",
"`  c #3D424B",
"'  c #3B4251",
"]  c #364152",
"[  c #424242",
"{  c #484743",
"}  c #4B4944",
"|  c #44464B",
" . c #4B4B4B",
".. c #47484A",
"X. c #504F4A",
"o. c #514D43",
"O. c #555245",
"+. c #54524D",
"@. c #5C5848",
"#. c #444953",
"$. c #4B4D54",
"%. c #434854",
"&. c #4E5155",
"*. c #545555",
"=. c #595753",
"-. c #5A5955",
";. c #555558",
":. c #5C5B59",
">. c #575859",
",. c #504F50",
"<. c #625D4B",
"1. c #605E59",
"2. c #6B644D",
"3. c #67614C",
"4. c #656154",
"5. c #6D695A",
"6. c #696556",
"7. c #736D58",
"8. c #7A7254",
"9. c #76705C",
"0. c #7B745C",
"q. c #777053",
"w. c #5A5A64",
"e. c #46496F",
"r. c #5D627B",
"t. c #6C6C6C",
"y. c #676768",
"u. c #7C7961",
"i. c #737373",
"p. c #7C7C7C",
"a. c #6B6E77",
"s. c #837B5B",
"d. c #847A58",
"f. c #847C61",
"g. c #887F64",
"h. c #8C825D",
"j. c #90855E",
"k. c #8C8363",
"l. c #958962",
"z. c #9A8D64",
"x. c #988E69",
"c. c #928866",
"v. c #9C916A",
"b. c #A2956A",
"n. c #A6996C",
"m. c #AB9D6D",
"M. c #A19366",
"N. c #AB9E72",
"B. c #B2A26E",
"V. c #AEA071",
"C. c #B4A572",
"Z. c #BBAB75",
"A. c #BBAC77",
"S. c #C3B379",
"D. c #CCBA7D",
"F. c #C6B479",
"G. c #D1BD7E",
"H. c #C1AE77",
"J. c #000083",
"K. c #00018A",
"L. c #000A87",
"P. c #001689",
"I. c #0E078B",
"U. c #152B8A",
"Y. c #253383",
"T. c #29368E",
"R. c #2A398F",
"E. c #273688",
"W. c #243690",
"Q. c #283790",
"!. c #2B3B93",
"~. c #263996",
"^. c #303391",
"/. c #0C4B93",
"(. c #354195",
"). c #3B4695",
"_. c #384898",
"`. c #324B97",
"'. c #33649F",
"]. c #295FA4",
"[. c #316AA5",
"{. c #1667AE",
"}. c #434C97",
"|. c #485093",
" X c #777989",
".X c #486EA2",
"XX c #7F8182",
"oX c #5499B9",
"OX c #488AB3",
"+X c #589AC0",
"@X c #5CA9C7",
"#X c #66ACC4",
"$X c #6EB6CC",
"%X c #70BAD2",
"&X c #76C5DD",
"*X c #838383",
"=X c #8B8C8C",
"-X c #979797",
";X c #BCB182",
":X c #B2B2B2",
">X c #A4A5A5",
",X c #CCBC83",
"<X c #C1B584",
"1X c #D1BE80",
"2X c #D5C281",
"3X c #DAC683",
"4X c #DDC984",
"5X c #DCCA89",
"6X c #E1CC86",
"7X c #E2CE89",
"8X c #E6D18A",
"9X c #EAD58B",
"0X c #EED98E",
"qX c #F2DB8E",
"wX c #F4DC90",
"eX c #FAE091",
"rX c #C4C4C5",
"tX c None",
/* pixels */
"tXtXtXtXtXtXtXtXtXtXtXtXtXtXtXtXtXtXtXtXtXtXtXtXtXtXtXtXtXtXtXtXtXtXtXtXtXtXtXtXtXtXtXtXtXtXtXtXtXtXtXtXtXtXtXtXtXtXtXtXtXtXtXtX",
"tXtXtXtXtXtXtXtXtXtXtXtXtXtXtXtXtXtXtXtXtXtXtXtXtXtXtXtXtX+ X       . + tXtXtXtXtXtXtXtXtXtX    tXtXtXtXtXtXtXtXtXtXtXtXtXtXtXtX",
"tXtXtXtXtXtXtXtXtXtXtXtXtXtXtX{     tXtXtXtXtX{ e . O , m V A Y Y Y T Z V 4 ; X & v ,.tXtXtX  &.  tXtXtXtXtXtXtXtXtXtXtXtXtXtXtX",
"tXtXtXtXtXtXtXtXtXtXtXtXtXtXK   q @ tXtX=.s * r B S &.9.c.n.C.Z.S.H.Z.V.v.k.y.] C H $ s  .a   9 + tXtXtXtXtXtXtXtXtXtXtXtXtXtXtX",
"tXtXtXtXtXtXtXtXtXtXtXtXtXtX*X  f . K z & K A $.k.Z.2X7X7X4X1X,XD.D.D.,X3X4X3XD.N.7.Y D j  . .  tXtXtXtXtXtXtXtXtXtXtXtXtXtXtXtX",
"tXtXtXtXtXtXtXtXtXtXtXtXtXtXtXp.  =.X.[ A =.N.7X9X3XA.M.f.6.=.$.%.| $.=.5.f.n.S.4X7X,Xc.Y R 4.{ :.tXtXtXtXtXtXtXtXtXtXtXtXtXtXtX",
"tXtXtXtXtXtXtXtXtXtXtXtXtXtXtXt.v 1.Z ` N.8X8XA.g.*.] Y R %.$.*.*.*.*.$.%.R Y ` 4.x.D.8X2Xf.V :.*.*.tXtXtXtXi.  *XtXtXtXtXtXtXtX",
"tXtXtXtXtXtXtX=XXXtXtXtXtXtX .{ *.1 k.6X8XC.5.' ` $.;.:.1.-.:.-.-.>.:.-.:.:.:.*.#.L %.0.S.9XA.| P -.g i.tXtX[     =XtXtXtXtXtXtX",
"tXtXtXtXtXtX*Xy.  p.tXtXt.u { K J A.wXF.6.] $.>.1.>.>.-.;.-.;.>.;.;.;.;.;.>.>.:.:.>.;.%.' k.3X7Xu.T 4.9 i.y.  j q   i.tXtXtXtXtX",
"tXtXtXtXtXtXi.   .  t.t.d } J =.3X9Xx.L &.>.=.>.*.-.-.>.-.>.-.>.-.-.-.-.=.>.=.>.-.=.>.>.:.' #.A.9Xx.Z >.[   0 +   i.tXtXtXtXtXtX",
"tXtXtXtXtXtXK   a 9   q +.G 4.8X5X5.] :.>.>.>.;.;.*.*.&.&.$.%.%.#.%.%.%.%.%.#.$.&.&.=.=.*.:.>.D v.qXN.V :.1.9   i.tXtXtXtXtXtXtX",
"tXtXtXtXtXtXtXi.  q f -.i -.8X3X*.$.4.;.*.$.$.%.%.$.*.-.1.5.s.s.g.k.c.k.k.k.g.0.5.:.*.#.#.#.&.>.V c.0XN.B 1.u i.tXtXtXtXtXtXtXtX",
"tXtXtXtXtXtXtXtXXX  *.[ ` 4X4X$.%.;.' $.=.5.f.v.m.H.H.1X6X7X6X6X6X4X7X0X8XD.D.D.1X,XF.A.n.k.u.>.:.M c.0Xx.B *.1.tXtXtXtXtXtXtXtX",
"tXtXtXtXtXtXtXtX*Xh X.m F.7X#.' :.7.c.n.Z.S.S.Z.m.v.9.B.wX8X<X<X,X,X;X9XF.V L *.1.0.k.x.N.A.A.C.n.c.$.N.9X0.J h t.tXtXtXtXtXtXtX",
"tXtXtXtXtXtXtXtX .k B z.9X0.6.x.N.C.C.M.0.-.P M M B m 1.8X8X7X5X2X8X7XwXm.%.-.*.$.' T B m D *.7.k.v.v.u.7X4X|  .s y.tXtX*X*XtXtX",
"tXtXtXtXtXtXtXt.o ..*.9XA.u.n.z.h.@.Z M Z | X.=.1.=.=.| G.wXqX7X,X8XwX0Xg.P *.X.+.=.<.:.1.>.$.P Z D #.y.5.9XA.>  .t.*X .  p.tXtX",
"tXtXtXt y.t.i.*.v 1 F.4X7.6.{ B B ` +.=.+.+. . . . . .` k.A.m.n.x.b.n.z.-...*. . .*. .$. .&.+.+.-.=. . .n v.0X3.K  .  0 @ -XtXtX",
"tXtXtX        X.4 8.9Xf.1 K | +.+.X. . . .}  . . . . . .K Z Z G J Z C B  . . . . . . . . . . . . . . .+.O.H 2XF.- -.>.d   t.tXtX",
"tXtXtX  :.0 s X.- D.,XG  .X. .| { ..} | } ....| |  .} |  . .X.X. .X.+.X. . ... . . . .}  . . .| .. . .{  .H k.9X@.i  .w.i.-XtXtX",
"tXtXtX    @ =., 7.9Xs.6 { | { { { | { | { | { { { | { | { { { | { { { | { { { | | { | | { { | { { { | [ ..[ d 4XC.< % k.tXtXtXtX",
"tXtXtXtXt.>.k > C.4X} J } | [ { { [ | [ [ | { [ { [ | { [ [ [ { [ | { | { { | { { { [ | { [ { | [ [ { [ [ ..4 n.7XG + 1.tXtXtXtX",
"tXtXtXtXp.=.9 Z 2XC.4 [ { [ [ [ [ [ { [ [ [ [ [ [ { { [ { | { [ [ [ [ [ [ [ [ [ [ [ [ [ [ [ [ [ | [ [ [ [ { i 4.7Xs.> X -XtXtXtX",
"tXtXtXtX:XX 6 2.7Xh., { [ [ [ [ [ [ [ [ [ [ [ [ [ [ [ [ _ [ [ [ [ [ [ [ v [ [ [ [ [ [ [ [ [ [ K [ v K [ K [ f d 1XC.O w :XtXtXtX",
"tXtXtXtX>X  M z.4X<.6 { [ _ f [ [ _ [ [ _ [ [ [ K [ [ _ [ [ [ [ _ j j j K [ f [ z f [ _ f [ j v f _ v f v f f 3 C.2X  t.rXtXtXtX",
"tXtXtXtXrXX.= A.D.d d [ f v [ [ _ [ _ v v K v [ K j _ v v [ K f _ [ [ K [ [ j [ [ f [ [ f f f f j f f K f f v , l.4X .O   tXtXtX",
"tXtXtXtXrXi.  D.A.4 _ [ _ v K v [ f [ f _ j [ f v [ v K K v v [ j j j [ j K j f f f f f f f f f f f f f f f v 4 q.6X<.6 % tXtXtX",
"tXtXtXtXs   | G.C.> [ v [ K _ j [ z K v f [ [ f f [ [ f v [ f f j K j K [ f K j f [ f f K f f f f f f f f f [ 6 <.3Xd.,   tXtXtX",
"tXtXtXtX1.5 { 3Xn.- { [ v K v [ K [ f [ [ v K [ [ v K [ K f [ [ _ j j j f v K j [ f f f v f f f f f s f f f [ 5 <.6Xj.<   tXtXtX",
"tXtXtXtX{ : X.2XM.- { j K v K v v j [ K v [ K v j _ [ [ f [ f f j f f [ j K v f f f f f f f f f f f g f f f [ 5 b 3Xz.<   tXtXtX",
"tXtXtXtX[ :  .2XM.> { j K [ v [ K [ v K K j v _ K v f [ [ f [ v [ [ f f K v K v [ f f [ f f f f f f f f f s v r @.4Xv.<   tXtXtX",
"tXtXtXtX .: | 2Xn.- { [ v f [ K v K v j v K v j v K v f K [ j K K v K v v v v K f f [ f f f f f f f f f f f j r @.4Xj.<   tXtXtX",
"tXtXtXtX:.9 G ,XB.> [ [ [ [ [ j [ [ [ [ [ [ [ [ [ [ [ [ v [ _ v f [ [ v K K [ v [ [ f v K v f f f f f f f f v 5 <.4Xh.<   tXtXtX",
"tXtXtXtXi.X C S.A.6 f { [ [ [ j [ v [ [ [ _ [ [ [ v [ K [ _ _ [ [ [ v [ [ K v [ f [ K [ j f j f [ f f f j f v 4 q.7Xq., o tXtXtX",
"tXtXtXtX=X  m B.1X_ i { K j [ [ K _ [ [ [ [ [ [ [ [ [ [ [ [ [ [ [ [ [ K [ j _ [ [ _ v [ [ [ K v _ v v K K f v 3 l.6XX.: k tXtXtX",
"tXtXtXtX>X  V l.4X<.6 { [ [ [ [ [ [ [ [ [ [ [ [ [ [ [ [ [ [ [ [ [ [ [ [ [ [ [ [ [ [ [ [ _ [ v _ [ f [ f _ v _ 3 C.2X8 $ >.tXtXtX",
"tXtXtXtX-X  G 2.7Xh.< { [ j [ [ [ [ [ [ [ [ [ [ [ [ [ [ [ [ [ [ [ [ [ [ [ [ [ [ [ [ [ [ [ [ [ [ [ [ [ [ j [ K d 2XZ.n X t.tXtXtX",
"tXtXtXtXtXv a H 2XB.3 [ [ j [ [ [ [ [ [ [ [ [ [ [ [ [ [ [ [ [ [ [ | [ | [ { [ [ { [ [ [ [ [ [ [ [ [ [ [ [ [ p 6.9Xd.B   t.tXtXtX",
"tXtXtXtXtX*XX n B.3X{ i { [ j [ [ [ [ [ [ [ [ [ [ [ [ { | { { [ [ [ { [ { [ { | | [ { | | { [ { [ [ [ [ [ { 3 n.7XK g 9 tXtXtXtX",
"tXtXtXtXtX-X  L 3.8Xh.3 [ [ [ j K [ [ [ [ [ [ [ [ [ [ [ [ [ { [ { [ [ { [ [ [ [ [ [ [ { [ { [ | { [ | [ [ [ p 2XC.< % y.tXtXtXtX",
"tXtXtXtXtXi.a k < D.,X7 K [ _ _ v [ [ v [ _ [ [ [ [ [ [ [ [ [ [ [ | [ { | { | [ { | [ [ | [ [ [ [ [ { [ { 6 s.9X<.K   t.tXtXtXtX",
"tXtXtXtXtXtX*X  H 8.0Xd.4 [ j j [ f f [ [ _ v [ [ [ j [ [ [ [ [ [ [ { [ [ { [ | { [ | { [ { [ { [ | [ [ } 3 2XA.n c d tXtXtXtXtX",
"tXtXtXtXtXtX*X  } > D.2X6 j j K f [ [ [ _ v v K j [ [ _ [ [ [ [ [ [ [ [ [ [ [ [ [ [ [ [ { [ [ | [ [ [ } , l.0X3.|   i.tXtXtXtXtX",
"tXtXtXtXtXtXtXXX  K @.0Xb.- } f j K [ f _ f [ f [ [ j j f v [ [ _ [ [ [ [ [ [ [ [ [ [ [ [ [ [ [ { j } K [ 9XV.1 v 9 tXtXtXtXtXtX",
"tXtXtXtXtXtXtXp.: c 1 b.qX<.6 b g j f f f f [ f K j K j [ K f [ j v _ _ [ v [ [ [ [ [ [ [ [ [ [ K { } - ,X3Xr  .  y.tXtXtXtXtXtX",
"tXtXtXtXtXtXtXtX*X  +.- D.5X5 d { g f f f f f f f f j f j j j j _ f v _ v K [ K K [ [ [ [ K j K [ O.- m.0X2.G s f tXtXtXtXtXtXtX",
"tXtXtXtXtXtXtXtXtX*.o [ t 5X1X> g } g f f f f f f f f f f K f K f f f f f v j z [ f v K [ v f v O.- c.qXl.>  .  tXtXtXtXtXtXtXtX",
"tXtXtXtXtXtXtXtXtXXX  v 5 @.9XD.3 u } s s f f f f f f f f f f f f f f f f f K j f f f v f f { X.= j.0Xb.- +.  :.tXtXtXtXtXtXtXtX",
"tXtXtXtXtXtXtXtXtXtX=X  } , @.8X3Xi - X.g s f g f g f g f f f f f f f f f f f f f f f f g } f = M.qXn.- {   *.tXtXtXtXtXtXtXtXtX",
"tXtXtXtXtXtXtXtXtXtXtX=X  } - O.4X8X3.= v v s g f s g f f f g f f f s f f f f f f f f z { 3 4 S.0Xl.- { $ } tXtXtXtXtXtXtXtXtXtX",
"tXtXtXtXtXtXtXtXtXtXtXtX*X  [ 4 u A.0Xm.- - z z g f g s s g g s g g f f g f s f f f v u = q.5X7Xq.- [ c = tXtXtXtXtXtXtXtXtXtXtX",
"tXtXtXtXtXtXtXtXtXtXtXtXtX*X  b u = j.8X4Xd.- - t s f f s j f s s g f g s f s f d 4 = @.S.0XH.j , { e D P.tXtXtXtXtXtXtXtXtXtXtX",
"tXtXtXtXtXtXtXtXtXtXtXtXtXtXW 0 s j - f Z.9X2Xl.b - = 4 y t d g g f g s d 5 , - a 8.H.9X3Xq.- d c & I ).J.tXtXtXtXtXtXtXtXtXtXtX",
"tXtXtXtXtXtXtXtXtXtXtXtXtXtXL.E.F & c d = O.C.7X7XF.j.2.b u a d s a s d g <.h.B.3X9XG.d.- 3 b w 0 ( ~._.J.tXtXtXtXtXtXtXtXtXtXtX",
"tXtXtXtXtXtXtXtXtXtXtXtXtXtXP.(.W.^ q e b y = t j.D.6X7X4XG.8.H X.| X.G 8.7X8XG.m.<.= - j j h D Y.!.R.).K.tXtXtXtXtXtXtXtXtXtXtX",
"tXtXtXtXtXtXtXtXtXtXtXtXtXtXP.^.!.!.Y.U t e b g - = r 2.z.B.8.$.:.>.:.*.<.d.b ; - 4 b c a y ( !.!.!.!._.K.tXtXtXtXtXtXtXtXtXtXtX",
"tXtXtXtXtXtXtXtXtXtXtXtXtXtXP.!.R.!.!.!.Y.I r h x b a - = O L :.;.;.*.>.| - y b b c a D ! ! E.!.!.!.W.}.J.tXtXtXtXtXtXtXtXtXtXtX",
"tXtXtXtXtXtXtXtXtXtXtXtXtXtXR._.~.!.R.!.!.!.W.^ I F a w x x l s k s l w e x w # n N ~ E.`.]./.T.!.!.}.R.W tXtXtXtXtXtXtXtXtXtXtX",
"tXtXtXtXtXtXtXtXtXtXtXtXtXtXQ W.|.!.W.!.!.!.~.`.(.E.Y.( ^ U U F F D U U I ( ! '.+X[.'.OX@X@X{.W.}._.J.U.w.tXtXtXtXtXtXtXtXtXtXtX",
"tXtXtXtXtXtXtXtXtXtXtXtXtXtX XQ K.).|.R.W.R.R.(.(.~.!.!.!.!.T.R.T.Q.Q.^.~.^.'.%X&X#XoX#XoX.X'.|.K.Q r.tXtXtXtXtXtXtXtXtXtXtXtXtX",
"tXtXtXtXtXtXtXtXtXtXtXtXtXtXtXtX XQ K.(.}._.R.W.W.!.R.R.!.!.!.!.!.!.!.!.E.I.+X%X#X$XoX_.}.^.Q E e.tXtXtXtXtXtXtXtXtXtXtXtXtXtXtX",
"tXtXtXtXtXtXtXtXtXtXtXtXtXtXtXtXtXtX XK.Q U.).|.).!.W.R.R.Q.T.W.Q.Q.Q.Y.! Y.oX$X$X#X.XI.K.Q e.tXtXtXtXtXtXtXtXtXtXtXtXtXtXtXtXtX",
"tXtXtXtXtXtXtXtXtXtXtXtXtXtXtXtXtXtXtXtXa.|.J.J.K.!.).).).(.(.(.!.(.(.).( / )..XOX/.W / &.tXtXtXtXtXtXtXtXtXtXtXtXtXtXtXtXtXtXtX",
"tXtXtXtXtXtXtXtXtXtXtXtXtXtXtXtXtXtXtXtXtXtXtXtXe.) Q J.K.K.K.P.I.K.K.K.W E Q W e.&.tXtXtXtXtXtXtXtXtXtXtXtXtXtXtXtXtXtXtXtXtXtX",
"tXtXtXtXtXtXtXtXtXtXtXtXtXtXtXtXtXtXtXtXtXtXtXtXtXtXtXtXtXtXtXtXtXtXtXtXtXtXtXtXtXtXtXtXtXtXtXtXtXtXtXtXtXtXtXtXtXtXtXtXtXtXtXtX"
};
