/* XPM */
static char *result[] = {
/* columns rows colors chars-per-pixel */
"64 64 87 1 ",
"  c #73706B",
". c #767674",
"X c #797975",
"o c #7D7D7B",
"O c #83817D",
"+ c #89867F",
"@ c #848482",
"# c #898782",
"$ c #8B8A86",
"% c #8D8C8B",
"& c #918E8B",
"* c #93918E",
"= c #949493",
"- c #999795",
"; c #979893",
": c #9A9996",
"> c #9C9C9B",
", c #A09B95",
"< c #A09E9D",
"1 c #A2A19E",
"2 c #A39FA0",
"3 c #A4A4A2",
"4 c #A9A6A4",
"5 c #A7A8A3",
"6 c #AAA9A6",
"7 c #A7A9A8",
"8 c #ADACAB",
"9 c #B0ABA6",
"0 c #B0AEAB",
"q c #AFB1AC",
"w c #B2B1AD",
"e c #BAB5AF",
"r c #B1AFB0",
"t c #B4B4B3",
"y c #B9B6B5",
"u c #B7B9B5",
"i c #BAB9B6",
"p c #B9B7B8",
"a c #BDBCBB",
"s c #C1BCB6",
"d c #C1BEBC",
"f c #BFC0BB",
"g c #C2C1BE",
"h c #C1BFC0",
"j c #BFC1C0",
"k c #C4C4C3",
"l c #C9C6C4",
"z c #C7C9C4",
"x c #CBC9C6",
"c c #CAC7C8",
"v c #CCCCCB",
"b c #D1CCC6",
"n c #D1CECC",
"m c #D2D1CE",
"M c #DAD5CF",
"N c #D1CFD0",
"B c #D4D4D3",
"V c #D8D6D5",
"C c #D7D8D3",
"Z c #DAD9D6",
"A c #D6D6D8",
"S c #D9D7D8",
"D c #DDDCDB",
"F c #E0DBD5",
"G c #E0DEDE",
"H c #DFE0DB",
"J c #E2E1DE",
"K c #DFDFE1",
"L c #E1DFE0",
"P c #E4E4E4",
"I c #E8E6E6",
"U c #E6E8E6",
"Y c #E9E9E6",
"T c #E7E6E8",
"R c #E9E7E8",
"E c #E7E9E8",
"W c #ECEBEB",
"Q c #F0EEED",
"! c #EFF0EB",
"~ c #F2F1EE",
"^ c #F1EFF0",
"/ c #EFF1F0",
"( c #F3F2F2",
") c #F8F6F3",
"_ c #FAFAF6",
"` c #F7F9F8",
"' c #FBFAF9",
/* pixels */
"YYge9gF~))JFbM)!^^Wsh^NT^R^'RhNS^)IGGVdBgSJW)WQY(DGRQR^vNQRhLhRI",
"J)!9g&,gg9ssg)YG^LLh2hhRLLRR^LShLBSRVQQJw88iWWYJavQRLQRV2hNh)LQR",
"sMFgQgilgggssFYYLR^A88LTLL^^^Sh8s-cRknDQmag*8a6trh^QWWLLp2rRRFRR",
"lM!)G~~ZgFMMbMQFL^^Lp%hR)RL^RSALchLVAlsZmYYmDbmCnpahGRTRFs=hLRLR",
"9LQZPII)lnGGG)YGRLL)WhhL^^^L^^RRJGCBv1lJWWJ~)BakNALLRTQQRL9rL^RR",
"ZIQR~~QIIL)II~Y~R^'WL2NNhL^RWR^^PQm1xD0v)CWYQ)mYQWPT^PRT^^SrMNLL",
")^W^RQR^RQQWQQYILLLLL-ScST^RLLL^JYnG~WW~Y~~~YWWURPW^^PIQL^h2ShbR",
"QI^^QI^WLIQWWQIQR^WLrhhNL^RL^RL)YyJQY~~W~W~W~W(L^W^SSRTLLRN9bhL^",
"^^QWW^(QLR^WWLcSRRLcLNhSGRR^^LSp6B!(W/`T(WWWTQ/DT(TTLLWL^SphphLT",
"^IR^^WWWRR^QTVcLWRLR)^SRLLLLSN-dDPQY//T(WWWQ///TT/W^LvL^TSL^SNLL",
"WLT^^WQ(Q^SL^LWSL^WWL'LL^^S^^N2SUK/KNWWEPE//WW///TLLTLLRTR^^RLTT",
"^^^WT^(WRVLR^QS^^LW(LL^LSNALShpSQETvpK/EWEETW(/QPDLTWLL^TRTLQRTL",
"^QQRUUYUDCYWQIvBLGLLWL^WLAphhNLAAKvBEWDEWWWWWEEWKADW^ShLLLL^LRRL",
")RQ(EZCCP)CJ^WRrN^^LWLLLLN=SRNRLADcD/WH/WQ(/WDDKPKDT^^LhSLRRLQTR",
"BnZPPJE)~UDPWWYGhL^LSrpNANhrpNARPWW(TWKKWTKT/EDDKQPP^^RShL^LLNhL",
"WPDBvnCDHJUWYP~(LL)Np2GLLNLNLQ^WWWEPDWSWjvBASADWWWDTRLR^LS^Qh&2L",
"W`PKADPAK(WE/EEUkHYAYDvDp2KL^^^RWPPETW/cuQ/EDKvNvBW/TEE/PvIJvPlI",
")YDBL((TW(W`PW/jkKmJPxmCpcTLWWR^/EWKWWkpD(PWvvT//PTTWQEDxrDACWxa",
"WPWPQ(W(//~PKEa1K(mUZ8D68^WQ(T^LTP/`Kp3AWT//PDW(EQ////WNykWZDnuZ",
"UPW^^WEWQY!P`k7Kvzm'Ix6x2V^TRLvGcpKNuvjT/TWKTWT/WETYEWPv8lZxP)xw",
"GQQ)WQQYY~YDWmWW)lDIYDmJcv^LN8-hNBKDATWjS/BWW//W/PT//KTTQ~D5J'Ik",
"9xnIW~QUJmmY~U~YYZ:D~mD)T^W^RcBvK!`PKAAkcu7kAK/TTW/KvSPWWWYY6CYP",
"9<4NQIZZwaW!E~Y~Jl65iaPPPR^RTLBtN/cvKB((/k73rpK`WKSpaW/EYY~x6:d6",
"N*&9y*%tyi~YWY~DWBwwmJ~GS^T^LAcrat>D/vNWL`tj>$>k3=88j/WW~YDPd6yx",
"QFsclnSxaylUUHPYWYf>%SPWPPUPWvtt8:=vcjtjNKrvH8tupjja7tPNPJJ~Ju*8",
"IL)QdSlxmnBPPHUEWWx6*fWUEPPEWKSAvvKKaKvrvKSEWKEKvKvaAjtcIYYWYx<#",
"R~L^g6LACJPW!PEE~P)B5BU(/EQWETWEEcTBKa=aNE(PDEWWj3kAADPTJWYY~WZ0",
")IQ)Pl(WDYWW!EEEUW!B<mxzKKWEYUWWKTAj@jv=7SEAK/W/TkPWDKWYYYJJWR~l",
"QL(WL^PWYQEWEPPEU(Eu:PkiDKULUDDWEATavB/Ev/WKWWPTPKPEPUETYGGYWJYu",
"))^RWIW^WWE!WPPPPJY75DaZYWEKUAAEWSSjK/TKQWTWTW//EPP/WW(DJDJJJYWl",
"QT^^^DWQWYW/WEEKUExgafzJWEEKYPPT/crEES//WKE/EEPPEWSPWESvPJPJCJJd",
"L^W^DL(R(WWWKP/KPZ7twmvAEPWTWYWKN:P/TT/EWEQEWWKW/DSWYWPJJJIYJWn1",
"QQE/PDE/WEPkkPEEScKWvjDBHEEH!mu*=rW/EE/WYQQWTPWWEKDTWTWDKpSWRLhS",
"//W/WE/WWPNjv/EKKKW/KNKEPCPAmq$qKK/KP/KWETETEWWEWWEKW/PDAkARLGLR",
"WWW/WWWPDWSDAKTEWWWWEDPEEmESPP:vDKKEvB`KYEPPPWETEEWPEKBETKDPTLPR",
"/WW/EKHAEWKPEWPUETEEPDUSHEH!Bq:aWDHKN%vPWEKKPETPWEWDHBNEKDULI^RP",
"/WQ/KASKPEWSPPPKTKTEEPEAakaCjkjcETKKjSD/PPUPPTUPWQWSNAPKTcBRPLLR",
"TT//DNSW/ETkBTPvKTKDWEPDxf:uqm!kKjBjvKWBAKEEEUPPDPEDzNPW^LpNLNnT",
"KAKKDDSKP//BjkKKKPKDKDKKC8v(SmHKjDvqNP/SSKTEWETKBvSKAANWL)cahLLL",
"PvBDEWSv/WPTjtATWPWUANPDp$;zftmKBAPTEWTWEEWWEWEPAvvAK/zS^LRG2NTR",
"KWEK!/PBK/EPAvtPEWBu=kaAcNc>aBDKKSKWEBWcjDDKNDPWAKPPEWPSLWGSNhN^",
"vKW/PBBWPPWWW!BKUv7;*DPHKKvAEUEPEE!EDNPAEAtcctBjfNKWPSATSLLRWQNT",
"kcvNADK/KSP/EvBW!gmzl(zf<vjPWEWEEEDATET/P7>E/WNNvufkjvPPTSIWWNaQ",
"ADSvAE/TWWKWEjvNDBEP7aD1>EKWETTPUKASKSDKv3BPEEBKNvSSvK(YLRLNRcch",
"/WWWEW/EEWPPj7cHkCZmzvZqjKDPETEEYPK/KP/v>jBWK/StjP/TTTLTLRRBA7ph",
"WPPWWQQWKATBrvPKzHg:Cv=p/KWEKE/HDPTT!Kj>>AEEEK/NKEEK^RTW^LLLdrh(",
"/W/YKT/WAWB=*jQSz_Jut73=PP/EKKEADBWKSj3>jEKWEPADPDEWLLRR^SLLr22L",
"QTEETWWKPT<3KjxqD!Uk3yz$vTKTUjjmvOjvpacBrPTKEDNWPPTWRLRRRLKNhBLh",
"/TEPRR^SRSdS~Id6WPYBtBN8kEDvu:$>8vBUDfm/KuPEzS!UKWTTYJDYYBYPJPRI",
"PWWKGRSNQDCYGQIigUWZBHDAWKW!z5tfPKWWDKDmj38jrpvKWKPTJJJJZgDGPWRP",
"WPDUGC4QIJQJQPJw%ZDmkEPYPEUKHCHjjHDKAzfvBDK:*:wtaTQKPJmm1nWJRRLW",
"WPUBt4Z!GQPQQPd6:3:*AWPDP!P!CmfqfmBqtHvH/EPv7:>73hRWUJk&8DJYRLQW",
"VMgs&b!JEJEPJDA8:tzmYYjNEPHWmzu5uN33HEnvPWEWf7wX%*gi&$6e1YYFWRWD",
"O +g*MIFJEUElRYp6&aBPAKDPPPKWmfq=:==fPx=axmYz;C<o@<*=*1w$gJJVLGm",
"1g999&M!JJPSDUWkiO+mZDPDSAKHP7<775X;gqguqwuZu5HCp8kygbg1e&0mimIZ",
"MMbeb9<ZEmmK!UUv*6X1mWTPDDKKAvCzfmfK!1gHw;uzCPHUBDSyZCaxfg1<aJJG",
"FssbxbFJJZJJPUUPm&:gJJIIEKDPEPDPzfuJgCC5:zmHJUJCDYYg*e19igJMCJJJ",
",essgMJJJJUYUUPUJg1gJ!WLKTPPJHHPHCAmfmf5$quJJHmCJP~Yw;mJMgCHHDDY",
"sI!MMJJJJJYPUUPUJM1siaIJKUPHDKKDCNHHfo*f3.3tHPuHYYJJCwJYmbJJPGCJ",
"bJGbF!IJPJJHYWPUJ1:MM;dmADDSDDPE!mkD%>7HJv1C!JHHCIJJZmCDCCJJJGCZ",
"GIPGGGJIPJGZUYJPJ+1bJ6dnSSDDBlNWPCvKuCHBPWDPDPUPIGPRmGZPIGGPPPSS",
"VFIYPPYIPJJDDPJJM+ebwdIPUDSGAkkKESDvqEkECKWPDDPYWPGIJJZZJPJGBZSn",
"DPIUITIGILJGFGGZx*1MsgRIPSNDLACKWKj8cDNEWTDYDUDTLWGLPGxMPYIBpNLS",
"AIYPLLIRIGGGGGFmemeyxbPITPLLKKDHEv:aEWHWYETPPYRL^SDRZUxDIGLPhvLD"
};
