/* XPM */
static char *result[] = {
/* columns rows colors chars-per-pixel */
"64 64 171 2 ",
"   c black",
".  c #010101",
"X  c #020202",
"o  c gray1",
"O  c #040404",
"+  c gray2",
"@  c #060606",
"#  c #070707",
"$  c gray3",
"%  c #090909",
"&  c gray4",
"*  c #0B0B0B",
"=  c #0C0C0C",
"-  c gray5",
";  c #0E0E0E",
":  c gray6",
">  c #101010",
",  c #111111",
"<  c gray7",
"1  c #131313",
"2  c gray8",
"3  c #151515",
"4  c #161616",
"5  c gray9",
"6  c #181818",
"7  c #191919",
"8  c gray10",
"9  c #1B1B1B",
"0  c gray11",
"q  c #1D1D1D",
"w  c #1E1E1E",
"e  c gray12",
"r  c #202020",
"t  c gray13",
"y  c #222222",
"u  c #232323",
"i  c gray14",
"p  c #252525",
"a  c gray15",
"s  c #272727",
"d  c #282828",
"f  c gray16",
"g  c #2A2A2A",
"h  c gray17",
"j  c #2C2C2C",
"k  c #2D2D2D",
"l  c gray18",
"z  c #2F2F2F",
"x  c gray19",
"c  c #313131",
"v  c #323232",
"b  c gray20",
"n  c #343434",
"m  c #353535",
"M  c gray21",
"N  c #373737",
"B  c gray22",
"V  c #393939",
"C  c #3A3A3A",
"Z  c gray23",
"A  c #3C3C3C",
"S  c gray24",
"D  c #3E3E3E",
"F  c #3F3F3F",
"G  c gray25",
"H  c #414141",
"J  c gray26",
"K  c #434343",
"L  c #444444",
"P  c gray27",
"I  c #464646",
"U  c gray28",
"Y  c #484848",
"T  c #494949",
"R  c gray29",
"E  c #4B4B4B",
"W  c #4C4C4C",
"Q  c gray30",
"!  c #4E4E4E",
"~  c gray31",
"^  c #505050",
"/  c #515151",
"(  c gray32",
")  c #535353",
"_  c gray33",
"`  c #555555",
"'  c #565656",
"]  c gray34",
"[  c #585858",
"{  c gray35",
"}  c #5A5A5A",
"|  c #5B5B5B",
" . c gray36",
".. c #5D5D5D",
"X. c gray37",
"o. c #5F5F5F",
"O. c #606060",
"+. c gray38",
"@. c #626262",
"#. c gray39",
"$. c #646464",
"%. c #656565",
"&. c gray40",
"*. c #676767",
"=. c #686868",
"-. c DimGray",
";. c #6A6A6A",
":. c gray42",
">. c #6C6C6C",
",. c #6D6D6D",
"<. c gray43",
"1. c #6F6F6F",
"2. c gray44",
"3. c #717171",
"4. c #727272",
"5. c gray45",
"6. c #747474",
"7. c gray46",
"8. c #767676",
"9. c #777777",
"0. c gray47",
"q. c #797979",
"w. c gray48",
"e. c #7B7B7B",
"r. c #7C7C7C",
"t. c gray49",
"y. c #7E7E7E",
"u. c gray50",
"i. c #808080",
"p. c #818181",
"a. c gray51",
"s. c #838383",
"d. c #848484",
"f. c gray52",
"g. c #868686",
"h. c gray53",
"j. c #888888",
"k. c #898989",
"l. c gray54",
"z. c #8B8B8B",
"x. c gray55",
"c. c #8D8D8D",
"v. c #8E8E8E",
"b. c gray56",
"n. c #909090",
"m. c gray57",
"M. c #929292",
"N. c #939393",
"B. c gray58",
"V. c #959595",
"C. c gray59",
"Z. c #979797",
"A. c #989898",
"S. c gray60",
"D. c #9A9A9A",
"F. c #9B9B9B",
"G. c gray61",
"H. c #9D9D9D",
"J. c gray62",
"K. c #9F9F9F",
"L. c #A0A0A0",
"P. c gray63",
"I. c #A2A2A2",
"U. c #A5A5A5",
"Y. c gray65",
"T. c #A9A9A9",
"R. c gray67",
"E. c gray68",
"W. c #AFAFAF",
"Q. c gray69",
"!. c #B1B1B1",
/* pixels */
"V.3.g.0.d.t.s.w.t.t.t.t.r.r.r.r.e.e.e.e.e.w.w.w.w.8.7.r.q.q.<.Z.B.-.z.7.a.f.u.y.r.r.r.t.t.t.t.t.r.r.r.r.r.e.e.e.u.7.i.y.0.j.@.I.",
"' * 4   X     . X X X X . .     . . .           o .   O X # # F ] $ 7   .     . X X X . . . . . . . . . .       X       X e & *.",
"0.; b x n M v A m m n n b b v v v v v c c c c x l k l j a g h 2.9., c v M b b V m m n n b v v v c c c c c x x x n b v h h V 3 d.",
":.  c c z n u g g g g f d d s s i i i i u u u u y y s p e q 1 ..&.  g n v z h d j h g f d s a a u u u u y y y y r a s p d z   5.",
"9.  C j e k r p d d s s a p i i t t t r r r r e e 8 y t i y ; o.4.  n z u d a u g f d s p i u u r r r e e e e e r y q q p C   h.",
"-.  M d e c g x j j h g f d s s a a a a p p p p a 0 r 0 i i = %.-.  m g r l g j k j j g f d s a a a p p p p i i f a r q r A   y.",
"=.  b k s h y p a p i u y t r e e e e e w w w w f q y 8 y r o $.:.  N k a j q u p p i u y t r r r r e e e e w w 8 8 e r 0 G   q.",
"4.O h g f a y h f d s a p i u y t t t r r r r r r 6 y 0 p t . &.5.  c d d k 0 k d s s a p i i u y y y t t t t t t e i r 1 F   t.",
"4.  x i e h h y r p a g e s q t d 5 y i 8 i t y e a 9 7 q a + =.5.. c p t k h u i d i i i g 4 f g 5 r u 9 i e 0 w i 7 0 3 F   y.",
"=.X M v a t e w p i t t 6 q w 9 w 5 0 w 7 q w 0 7 r w i y q    .%.  b x u e 0 9 y a y t t t 5 w r 6 0 e 8 q q 7 8 t r h e B   7.",
"9.* p f h k k k k h f f s d v s s g d g j s k s s a u f p u 2 9.e.: g l x c c x d j g h k d k d s h g h j s k f t r q s q b - g.",
"X.o +   X # $ o         .   o           O   X   * @ .     @ + ` {   .     X X           .   O     .     o   o   % #   .   2 . @.",
"P.u.b.l.i.i.h.a.z.j.l.h.h.f.u.b.c.p.s.a.x.y.j.p.t.p.s.u.y.s.9.G.U.s.V.n.f.g.z.g.l.z.g.j.f.y.s.x.z.p.d.p.l.e.j.d.t.d.s.u.r.k.5.I.",
"..{ &.=.%.-.1.$.$.X.O.|  .*.( n.i.' &.@.:.O.*.#.@.&.>.&.&.:...#.[ ` @.%.+.%.;.o.o.+.| @.X.+.] p.i.' %.O.=...&.$.o.*.=.+.@.=.` O.",
"r 9 : < > : < @ 2 > 2 > : s   =.! o u q u q r r e 6 9 6 6 q 9 8 u q < 3 2 < 2 $ < 1 - 5 , r o ) / O y 9 t q r r r r q 6 w w 0 w ",
"s l s v h t k v s p j d t C   u.=.$ b j l k k x N g z c z j k j p k a c g r j x j h t g w v O ;.1.* v g l z k z v j h k v d j k ",
"u u u u y y y y u i r p r k . 0.@.o g h j f f g h h g f d a p i u u u u y y y y r t t u 0 x   @.%.  d h f g k f j h h g f s a p ",
"y y y t t t t t y u e i e j   9.@.o f h j f f f f f d d a p i u y y y t t t t t r t t u q x   #.&.  d h f f j d f f d d a p u y ",
"y y t t t t r r t t w u w h   9.@.X f g h d d d d d d s a i u y y y t t t t r r r t t u 0 x   #.&.  d h f f j d s s s a p u y t ",
"y y y y t t t t r r q y q h   8.@.X f g h d s s s s s s a i u u y y y y t t t t e r e t 9 z   #.*.. f h d d h a s s a a p i u y ",
"t r r r r e e e e e 0 t q g   8.@.X d f g s a a i p p i i u t t t r r r r e e e w e w e 7 l   #.*.. f h d s f p p p p p i u y t ",
"e e w w w w q q e e 0 t q h   9.+.X d d f a p p t y y y t r e e e e w w w w q q w e q e 7 l   $.=.X f g s a d i y u u u y t r r ",
"r r r e e e e e e e q y w j . 0.+.. d d f p i i y y y y y t r r r r r e e e e e r r e r 8 x X *.=.X f g s p d u y y u u y t t r ",
"u u u u y y y y e r q y w j . q.+.. d d d p i i p p p p p i i u u u u u y y y y y y r t 0 v O -.=.X f g a p s y i i p p i i u y ",
"  @   X .   . . X + o   o   ; >.' =   &     $   o . o   X X . .   $     X X o     @     $   * ] o.:   @     &         O . o . + ",
"H.b.B.N.B.m.N.M.m.M.N.n.G.M.f.E.R.x.b.G.v.b.H.Z.B.B.N.b.V.M.v.K.H.v.m.m.B.N.B.M.B.F.b.c.S.x.l.R.R.x.n.L.B.N.F.n.Z.A.N.C.c.B.p.L.",
"u.L +.' } [ [ ` { ] ' /  ...E ! E ~ } | / ) } _ ) ' ^ ! [ ^ U 5.e.H o.` { [ { [ '  .' ) | { ! W / / { { / ` } _ ) ` / _ E O.N a.",
"$.  b t d d a u s p s y e a d s w p u q e t w 7 q u 7 7 i 8 = / o.  m y s p a a r p f p t s d t a d t 6 9 t r 0 7 0 9 w 4 N   2.",
"9.  C a l x j h h g x n d y g f d g u r d s y a a j u i j p , =.6.  F g k k h l x j x z a d l g a g p i k g t y s f d a w J   d.",
"8.  m p f k f g z f p z f e s i e u u i p w q s y a r u p u = =.6.  Z g g h d h x p i g f s p e r i i a a e w s y i u e 9 D   p.",
"6.  n g f k d h z z r d h i l f y p s s y e r t r t r i w i & $.2.  N k g j s h g s i a h h a t s s a y q q u d w e r 0 r F   u.",
"<.  c h p f i d w z p f h t a q p t e q q s s 9 r w t p 8 p & O.-.  x j s g i d p z j y u p i p y t y r r d s 9 u y u w p D   q.",
"1.O f k g a h f u h v i u f e a t w r i u q q y t 0 r r q 8 > %.,.o f l g p h h y g i p g p i r t w r i u q q y s q r e 0 v   t.",
",.X b g a p s w s i u t u u w w u r e r r e w e e w y e q t % +.>.X n h a i s r p p u a p q e t u r e r r e w e 0 8 e 0 9 D   y.",
";.  Z s s j k t d y e s u w p r p u r w e y t w w e y e 0 s . $.;.  A s s g j t f t p f y q t p p u r w e y t w q t u q 5 K   q.",
"<.  N e p f d y q u i g w 6 s r w t t q q r r q w 8 w q 7 i   ,.1.  V r p d s y i 9 i u q y y r w t t q q r r q t y y w < D   e.",
"6.X l 7 r w 7 0 5 r t w 6 6 9 < < 6 0 8 6 6 7 7 q 1 5 7 3 7   ,.6.o z 8 r q 6 9 0 5 r 4 4 u 6 1 < 6 0 8 6 6 7 7 7 3 5 q > n O i.",
"O.; i 7 t w 6 t e q 0 , 8 e - > > , 1 4 3 < < 4 7 > 3 3 2 > # ' O.; p 8 r q 5 t 0 9 t > 5 t - 2 > , 1 4 3 < < 4 3 : , 0 : a - &.",
"!.M.D.C.F.J.Z.L.K.B.F.x.G.H.i.T.J.M.v.V.A.N.M.Z.N.N.D.n.Z.n.M.R.W.M.F.Z.D.J.A.I.D.S.G.c.S.A.p.Y.J.M.v.V.A.N.M.Z.Z.B.N.F.b.D.n.Q.",
"Z L L G D P Z F K V W A Y H a 9.o.T D Y ~ T I W H T ^ F E L W V V K L G D L A H J F J B Y S s &.o.T D Y ~ T I W L U I R J T P Z ",
"d d d d s s s s p a i d y l   8.+.X f h k h h j h h h h h g f f d d d d s s s s p a p s e v   #.&.  g k j j z h j h g g f f g g ",
"a a a a p p p p i p y s t k   8.+.X f h k h h j g g g g f d s a a a a a p p p p i p i a w c   #.&.. g k h h l g j h g g f f f f ",
"u u u u u y y y u u t p r j   8.+.X f h j g g h f f f d s a i i u u u u u y y y y u y i q x   #.&.. g k h h k f h h g f d s s a ",
"y y y y t t t t t y e u w h   8.@.X f g j f d f f f d s a p u y y y y y t t t t t t t y 9 z   #.&.. f j g f j s g g f d s a p i ",
"y y y t t t t r r r q y q h   9.@.X f g h d s s d d d s a i u y y y y t t t t r e r e r 8 z   $.&.. f j f d g a d d d d a p u y ",
"y y t t t t r r r r 0 t q h   0.@.X f f g a a a s s s a p i u y y y t t t t r r e r w r 8 z   %.*.. f h d s f i a a s s a i y t ",
"t t r r r r e e r r 0 t q h . w.@.X f f f a i p i i i i i u y t t t r r r r e e e e w e 8 x . &.*.. f h s a d u i i p a p i y r ",
"r e e e e w w w r r 0 t q j X w.@.X f f f p i i y y y y y t t r r e e e e w w w e r w r 8 x X *.*.. f h s a s y y u p p p i y r ",
"h 3 u u 5 a u r u 9 y 5 a m   i.,.  g k h h h y i a d i f u r f a 8 t t e p 8 p a 0 s 7 e x   7.2.  j j s a d y a d p y s f , f ",
"O % # + + $ % O X O - o # 5   4.[   2 - % O & o X % & . # $   o + @ # % + + % +     o   # e   %.+.  > & * $ *   . . X . # O @ . ",
"h V x k M x b l z n m c g m p 0.1.N H V Z c F C n S A c N D l M x x v m l j Z h N n v x g N e o.7.N S N D N G M V N B M B x F l ",
"C.y.l.h.z.k.k.g.z.x.p.j.d.j.0.N.M.s.h.f.v.a.n.l.f.l.k.a.d.k.9.C.S.q.z.z.f.g.v.g.g.k.h.v.a.h.e.m.c.s.k.h.x.y.v.z.x.z.k.j.f.j.y.A.",
"%.= Z C c A n M M M g B V C c j g b x z N f c h z k j l g g 7 [ #.< Z m v A x Z c M n D b N N b p v b c n p x l j x g l f G = 1.",
"8.  B M s B k v k x h x l l c l h m l g z f h g z g f x d s 3 :.2.  B l j V p N m m x v f h c d k m j f c j k f g z s j i P   h.",
"4.  v l s z s k g k j s p t i g r u y q r i r y i t r p w u * %.<.  m j a z a k s p a i i f l g i i r 0 t s t y u s e p 6 N   w.",
"=.% c f k f s h j g h p g a r a i t a i i j w r u p t y q h = @.=.o m z p f z p j f l d d s y r t y h i w i 0 p r u e s 0 m > 8.",
"1.  B y l l u j g f f d s p i u u u y y y y y t 0 e r 0 u u : ..,.  m t l z i h f f f d s a i i u u y y y y y t r s t 8 t M   w.",
"4.  D h k g r u s s s a p u y t t t r r r r e e p s u 0 i r = #.3.  S g k g t i a a a a p u y t t t r r r r e e 6 r t r u G   t.",
"<.  b i t s g j d d d s a i u y u u y y y y t t q y w 7 p 0 @ *.>.  m p r a g z s s s s a p i u u u y y y y t t i y y 0 2 A   w.",
"0.o m h y f d t p p p i u y t r t t t t r r r r 8 u t e h 0 O =.7.+ V k t a f p i i i i u y t t t t t t r r r r e 8 t e 4 I   f.",
"&.  g j d z p 6 y y y y t r e w r e e e e w w w q y r 9 y 5 X @.$.  l z s j p 9 t t t t t r e e r e e e e w w w 9 5 y u 6 D   7.",
"3., h h j B c z k k l k k j h g j j j j j h h h h f g i a f e 7.2.1 k j j M c x j k k k k j j h j j j j j h h h c f h p e V : u.",
"{ + = .   o   +     . .                         O   # O   * + R } @ = .   X   O       .                         o         ; . %.",
"M.` *.&.:.:. .:.*.*.=.=.*.*.&.%.=.=.=.*.*.*.*.*.#. .,.;. .&.| b.N.` %.%.;.;.} =.&.*.*.=.*.*.&.&.=.=.=.*.*.*.*.*.#.%.-.=.,.X.Q F."
};
