/* XPM */
static char *result[] = {
/* columns rows colors chars-per-pixel */
"64 64 210 2 ",
"   c #090004",
".  c #1B0107",
"X  c #2B0907",
"o  c #320407",
"O  c #360C09",
"+  c #3C0C08",
"@  c #360A07",
"#  c #440200",
"$  c #430D09",
"%  c #4A0E08",
"&  c #470D05",
"*  c #5C0000",
"=  c #5A0A00",
"-  c #570F00",
";  c #43110A",
":  c #4C120A",
">  c #45190D",
",  c #4B180E",
"<  c #54140A",
"1  c #5B150A",
"2  c #551A0C",
"3  c #5D190B",
"4  c #581400",
"5  c #521D17",
"6  c #5D1F12",
"7  c #660100",
"8  c #6C0000",
"9  c #6B0C00",
"0  c #730000",
"q  c #7A0100",
"w  c #750D00",
"e  c #7B0D00",
"r  c #631504",
"t  c #691706",
"y  c #621906",
"u  c #6C1A04",
"i  c #62160A",
"p  c #641A0B",
"a  c #6C1C0B",
"s  c #691709",
"d  c #751601",
"f  c #7D1300",
"g  c #731E04",
"h  c #7B1C02",
"j  c #731E0B",
"k  c #7A1F09",
"l  c #641E16",
"z  c #5E2212",
"x  c #6D210D",
"c  c #67210C",
"v  c #7E2206",
"b  c #74210D",
"n  c #7C230C",
"m  c #7D290E",
"M  c #662214",
"N  c #6C2212",
"B  c #6E2916",
"V  c #6A2319",
"C  c #6D2D19",
"Z  c #742412",
"A  c #7B2513",
"S  c #732812",
"D  c #7D2A12",
"F  c #742C1C",
"G  c #7B2B19",
"H  c #7C311C",
"J  c #762E21",
"K  c #6F3526",
"L  c #743422",
"P  c #7C392A",
"I  c #7E3121",
"U  c #73453A",
"Y  c #5F4D49",
"T  c #644E49",
"R  c #6A4E47",
"E  c #704941",
"W  c #64534E",
"Q  c #6D534D",
"!  c #7C574C",
"~  c #6D5B55",
"^  c #6E5D59",
"/  c #675651",
"(  c #785A50",
")  c #75625D",
"_  c #7C655E",
"`  c #796C68",
"'  c #840000",
"]  c #890100",
"[  c #8D0B00",
"{  c #870D00",
"}  c #920100",
"|  c #940900",
" . c #831300",
".. c #851B00",
"X. c #891B00",
"o. c #8A1000",
"O. c #941500",
"+. c #941A00",
"@. c #832303",
"#. c #8C2400",
"$. c #8E2D00",
"%. c #82260C",
"&. c #89270B",
"*. c #84290D",
"=. c #8B2B0D",
"-. c #862803",
";. c #942400",
":. c #9B2400",
">. c #942B01",
",. c #9C2C00",
"<. c #922E0C",
"1. c #8E300F",
"2. c #9C3300",
"3. c #95310E",
"4. c #9B340E",
"5. c #963403",
"6. c #822712",
"7. c #832B12",
"8. c #8B2E12",
"9. c #832C1B",
"0. c #902F10",
"q. c #8D3214",
"w. c #82331A",
"e. c #8C331C",
"r. c #8B3617",
"t. c #943413",
"y. c #9A3613",
"u. c #9B3914",
"i. c #92341A",
"p. c #9A361A",
"a. c #943A1B",
"s. c #9D3B19",
"d. c #953816",
"f. c #A12900",
"g. c #A33500",
"h. c #A63A00",
"j. c #AB3C00",
"k. c #A0390F",
"l. c #A33B12",
"z. c #883A24",
"x. c #933A22",
"c. c #9A3C20",
"v. c #99411C",
"b. c #AD4203",
"n. c #B04915",
"m. c #9F4122",
"M. c #93412C",
"N. c #9F472B",
"B. c #85483A",
"V. c #9A4C34",
"C. c #954C38",
"Z. c #A44F2F",
"A. c #A84822",
"S. c #A44F36",
"D. c #A95C3F",
"F. c #A4563A",
"G. c #B05532",
"H. c #8A4D42",
"J. c #8D5345",
"K. c #89554C",
"L. c #8E5C4A",
"P. c #9B5443",
"I. c #9D5A45",
"U. c #95574A",
"Y. c #975847",
"T. c #8A5C51",
"R. c #855E54",
"E. c #A25B44",
"W. c #A45E4B",
"Q. c #A65A42",
"!. c #97634D",
"~. c #856259",
"^. c #8C655B",
"/. c #8A6357",
"(. c #9B6154",
"). c #98685B",
"_. c #A2634C",
"`. c #B2674D",
"'. c #AB6953",
"]. c #A56757",
"[. c #B46D56",
"{. c #AC705E",
"}. c #B2705A",
"|. c #BC755D",
" X c #BE7254",
".X c #856B64",
"XX c #8B6960",
"oX c #9C6E62",
"OX c #85736C",
"+X c #8D736E",
"@X c #93726A",
"#X c #9E7467",
"$X c #8D7B75",
"%X c #877A76",
"&X c #987A71",
"*X c #A37262",
"=X c #A97364",
"-X c #A47B6D",
";X c #B47967",
":X c #A27C71",
">X c #94847D",
",X c #A18177",
"<X c #AF867B",
"1X c #B38074",
"2X c #9E8882",
"3X c #AC8C83",
"4X c #B99387",
"5X c #BC9F97",
"6X c #C19486",
"7X c None",
/* pixels */
"7X7X7X7X7X7X7X7X7X7X7X7X7X7X7X7X7X7X7X7X7X7X7X7X7X7X7X7X7X7X7X7X7X7X7X7X7X7X7X7X7X7X7X7X7X7X7X7X7X7X7X7X7X7X7X7X7X7X7X7X7X7X7X7X",
"7X7X7X7X7X7X7X7X7X7X7X7X7X7X7X7X7X7X7X7X7X7X7X7X7X7X7X7X7X7X7X7X7X7X7X7X7X7X7X7X7X7X7X7X7X7X7X7X7X7X7X7X7X7X7X7X7X7X7X7X7X7X7X7X",
"7X7X7X7X7X7X7X7X7X7X7X7X7X7X7X7X7X7X7X7X7X7X7X7X7X7X7X7X7X7X7X7X7X7X7X7X7X7X7X7X7X7X7X7X7X7X7X7X7X7X7X7X7X7X7X7X7X7X7X7X7X7X7X7X",
"7X7X7X7X7X7X7X7X7X7X7X7X7X7X7X7X7X7X7X7X7X7X7X7X7X7X7X7X7X7X7X7X7XOX7X7X~ 7X7X7X7X7X7X7X7X7X7X7X7X7X7X7X7X7X7X7X7X7X7X7X7X7X7X7X",
"7X7X7X7X7X7X7X7X7X7X7X7X7X7X7X7X7X7X7X7X7X7X7X7X7X,XQ.Z.;X5X].4X;Xn. Xb.f.>.p.L.7X7X7X7X7X7X7X7X7X7X7X7X7X7X7X7X7X7X7X7X7X7X7X7X",
"7X7X7X7X7X7X7X7X7X7X7X7X7X7X7X7X7X7X7X7X7X7X7X2X4X} :.>.:.#.f.+.o.#.,.h.b.b.;.O.'.7X7X7X7X7X7X7X7X7X7X7X7X7X7X7X7X7X7X7X7X7X7X7X",
"7X7X7X7X7X7X7X7X7X7X7X7X7X7X7X7X7X7X7X7X7X$XP { >...q.i.t.;.p.2.=.A p.s.t.a.s.p.g.g..X7X7X7X7X7X7X7X7X7X7X7X7X7X7X7X7X7X7X7X7X7X",
"7X7X7X7X7X7X7X7X7X7X7X7X7X7X7X7X7X7X7X*X}.$.7 @.4.i.=.%.&.i.=.q.6.3.b 3.=.%.=.k.t.O.N.%X7X7X7X7X7X7X7X7X7X7X7X7X7X7X7X7X7X7X7X7X",
"7X7X7X7X7X7X7X7X7X7X7X7X7X7X7X7X..].V.+.:.#.t.p.e.q.=.%.n &.=.j b *.j v v 8.n 4.4.i.w D.I.7X7X7X7X7X7X7X7X7X7X7X7X7X7X7X7X7X7X7X",
"7X7X7X7X7X7X7X7X7X7X7X7X7X7X7X7X8 8  ...6.i.l.v *.%.x s b k j n %.1 b b a 3.m %.=.%.<.>.} {.` 7X7X7X7X7X7X7X7X7X7X7X7X7X7X7X7X7X",
"7X7X7X7X7X7X7X7X7X7X7X7X7X7X7XW * l p.l.3.=.*.a n %.j n k a p a 1 a n j 1 a j m a n *.6.7.g.h.|.E.7X7X7X7X7X7X7X7X7X7X7X7X7X7X7X",
"7X7X7X7X7X7X7X7X7X7X7X7X7X~ L.,.t.3.k.k.l.=.n n *.&.3 : a n s n a *.j @ p %.%.*.=.=.j <.=.<.>.;.} .X7X7X7X7X7X7X7X7X7X7X7X7X7X7X",
"7X7X7X7X7X7X7X7X7X7X7X7X7XQ.>.j.k.<.4.l.k.%.n <.3.n 1 @ p < ; b n m a < m %.3.<.4.<.%.%.4.8.p.4.p.] ^ 7X7X7X7X7X7X7X7X7X7X7X7X7X",
"7X7X7X7X7X7X7X7X7X7X7X7X7Xu.4.s.<.<.3.=.%.m a b n : y *.v l , b k a k n j n =.=.k.l.k j =.3.&.3.i.+.V.7X7X7X7X7X7X7X7X7X7X7X7X7X",
"7X7X7X7X7X7X7X7X7X7X7X7X( ,.0...<.=.3.&.k j j 1 1 < i =.*.8.a a a a &.n s j 6.%.%.t.&.&.%.%.%.*.y.i...Y.7X7X7X7X7X7X7X7X7X7X7X7X",
"7X7X7X7X7X7X7X7X7X7X7X7X] A.y.y.=.&.4.n =.%.%.a O + + % a n k j a n j %.s n 3 a n <.<.%.a j 3.%.=.l.0 ).7X7X7X7X7X7X7X7X7X7X7X7X",
"7X7X7X7X7X7X7X7X7X7X7X7X} c.=.%.v %.*.x &.l.=.&.a < 1 b a p k m *.n n k : + p *.1.%.3.%.a <.y.3.=.0.l.Q.=X7X7X7X7X7X7X7X7X7X7X7X",
"7X7X7X7X7X7X7X7X7X7X7XT ' i.n =.<.m b j %.=.*.=.<.=.*.*.s a n 1.m =.%.n a a j b *.%.3.4.k &.4.<.k %.-.E.] 7X7X7X7X7X7X7X7X7X7X7X",
"7X7X7X7X7X7X7X7X7X7X7XF #.8.b &.%.&.%.a &.=.*.*.4.b %.n b b =.=.b %.m n %.a %.p < b <.&.<.n =.%.a v V ] >X7X7X7X7X7X7X7X7X7X7X7X",
"7X7X7X7X7X7X7X7X7X7X/.+.i.=.=.n j %.*.%.3.v n %.=.j %.m n *.D a k < a A *.n %.a < a a < Z k b 7.q.n 6.,.E.7X7X7X7X7X7X7X7X7X7X7X",
"7X7X7X7X7X7X7X7X7X7X>.%.a %.*.a %.%.s %.x j *.v u j j %.<.j b b p b y B w.u j j n %.%.m *.a < A %.m k q.+.(.7X7X7X7X7X7X7X7X7X7X",
"7X7X7X7X7X7X7X7X7X).d D =.*.*.s a b a a j 1.m b b b j j j b *.=.a a N a x a a =.b s 7.=.*.&.a ..y.y.@.1 Z ' y.7X7X7X7X7X7X7X7X7X",
"7X7X7X7X7X7X7X7X7X_.@.y.4.%.A t.8.*.3.b *.%.=.n %.d.A %.n %.a n D i H j p b b u b b j =.a *.%.k 3.v *.j S  .Z.7X7X7X7X7X7X7X7X7X",
"7X7X7X7X7X7X7X7X7X!.S.;.<.n ..y.l.<.=.n n j n 8.j w.7.g b %.x D Z a k G N s j N b @.b v v 1 b @.1 s %.i.;.(.7X7X7X7X7X7X7X7X7X7X",
"7X7X7X7X7X7X7X7X7X~ h.=.%.%.t k =.=.j i a 3 p b j i b n 6.n a i s 3 3 x b a *.D S e.v m b v 1 =.*.k *.0.7 P.^.7X7X7X7X7X7X7X7X7X",
"7X7X7X7X7X7X7X7X7X_ ] G j %.&.n h %.3 a p %.x p n &.n D D p j 3.=.% O O < *.b t q.C n n 3 j %.=.&.<.%.*.l 8 K.7X7X7X7X7X7X7X7X7X",
"7X7X7X7X7X7X7X7XV.p.>.8.%.%.=.@.p.0.n n A %.n a b a %.m M < < %.b a a O p j 1 a 6.v %.j 3 =.b 1 m k j b 6.X.W.7X7X7X7X7X7X7X7X7X",
"7X7X7X7X7X7X^ ` :X] i.<.%.n =.u C v.v s g s 7.j < a j x A n a i b n j a b b a b v %.b j =.8.q.1 %.b i j b e.[ Q 7X7X7X7X7X7X7X7X",
"7X7X7X7X7X7XF.[.P...%.m =.%.%.n s S b %.q.3 a =.n v b m j a b n *.< j %.n &.v A $ a s a &.a q.%.A b s b =.9.8 7X7X7X7X7X7X7X7X7X",
"7X7X7X7X7X7X7XJ.q V <.&.n %.j a n i m m v.n n %.j b m b %.a j %.%.m s k s : 1 x m a a b a b *.b b k %.n %.V q 7X7X7X7X7X7X7X7X7X",
"7X7X7X7X7X7X7X).7 5 j j t n v j b m =.s 3 *.b j n n b j b D m a p < s k a j x p m b A y 3 b j s b j %.n # J g.@X7X7X7X7X7X7X7X7X",
"7X7X7X7X7X7X^.2.A < s A G q.H 3.%.x n b j *.1.j p 2 a A a b n a a p a %.t.<.v =.j b n a 1 1 j j j n 1 *.b B g.'.=X7X7X7X7X7X7X7X",
"7X7X7X7X7X7X$X2.8.*.s b 7.6.q.n a m p a G a j p S b 1 a %.j j %.%.j k =.A 6.n n i b %.a p b j *.: a %.*.b 3.3.t.O.3X7X7X7X7X7X7X",
"7X7X7X7X7X7X>X8 A *.p 3 *.3.7.s %.8.k a %.a < n Z p o x j < i m b j %.b j < < j j : p a a =.*.7.a k m a a %.*.b <.[.7X7X7X7X7X7X",
"7X7X7X7X7X7X@X0 e.k a j b %.%.n Z 1 3 j a b %.a j w.M b k 1 j a j j m 1 m s j <.=.3 p a s k a =.4.=.m %.n &.@.9.q ] 7X7X7X7X7X7X",
"7X7X7X7X7X7X<XG.A k =.*.b a b b x a p v a a n *.s %.a -.b b b j a n n j a m %.n j n n n k j Z =.y.<.%.a j %.p.f.;X:X7X7X7X7X7X7X",
"7X7X7X7X7X7X>X{.d l.=.b %.: j %.1.b b x %.n n %.7.v N F @.x 3 a p b b ; j 8.1 p p k v s j x b %.v %.%.b *.j 7.;.].7X7X7X7X7X7X7X",
"7X7X7X7X7X7X}.u.9.n 3 p %.a n 1 *.a : 1 m i.%.< %.*.A B p Z D b A , a p o 1 p N N b x M j 1 a s x %.k a a =.9.{ U.7X7X7X7X7X7X7X",
"7X7X7X7X7X7X2.j.I b b k j m p 1 m &.m x b b p N < 3 b a : < b S s 2 p m < b D 3 x < b 8.j j p 1 x b x b M 8.q.5.OX7X7X7X7X7X7X7X",
"7X7X7X7X7X7XW U q n a < 3 i x =.b j =.m j u m 7.x n 7.j j $ 1 p x a s p j v 1.x p a q.D a Z i x p : %.j %.9.f $X7X7X7X7X7X7X7X7X",
"7X7X7X7X7X7X7X7X7X3 j a 1 1 M %.a %.3 N a x b %.% b b n =.r.1.n %.b 1 + 1 n *.b p b 3 s n 3 2 p < > a A x.#.q XX7X7X7X7X7X7X7X7X",
"7X7X7X7X7X7X7X7X7XJ.X.8.n Z s n p n a p p 2 i a m j n A v n 3.t.a < a a j b j %.a < p x *.; + + @ @ a r q W.<XoX7X7X7X7X7X7X7X7X",
"7X7X7X7X7X7X-X}.4Xz.h b b &.n : 1 b v %.b a m 6.*.k 1 1 3 a 3 S 1 b 3 s n 8.j %.n p n a a : @ O . 6 a K Q 7X7X7X7X7X7X7X7X7X7X7X",
"7X7X7X7X7X7X7X3XX.A.t a j %.6.M u b H %.a v n x m a 3 b b m 1 # x b n x 3 b n b =.a < m %.n 1   X M X..X7X7X7X7X7X7X7X7X7X7X7X7X",
"7X7X7X7X7X7X7XT.7 w.G b *.%.- a.L y 7.G Z a b j j j %.i < & N C 3 m s x a n a b n e.b %.*.j m > ; k 8.A.#XQ 7X7X7X7X7X7X7X7X7X7X",
"7X7X7X7X7X7X7X7XT *.<.8.a 1 < z.8.r b n q.m s m n n *.p : < 7.B & a a @ ; p m j % c m a i b %.G s Z V @X7X7X7X7X7X7X7X7X7X7X7X7X",
"7X7X7X7X7X7X7X7X7Xa.i.q.a &.7.G %.3 1 p 7.n 1 j 1 n *.1 s m 3 %.j i < 1 2 3 b 1 $ , < x a n j b 9.q K.7X7X7X7X7X7X7X7X7X7X7X7X7X",
"7X7X7X7X7X7X7X7X7X}.{. .7.x a a 1 S r.j 3 1 n a < < < a a 2 3 a %.n a =.b % < < : < n =.6.x 3 Z 9 H.7X7X7X7X7X7X7X7X7X7X7X7X7X7X",
"7X7X7X7X7X7X7X7X7X&X5.%.A i j % p n m b < s j 1 p p s n p ; x p *.n v =.s @ < ; : b p b %.a p Z 0 M.7X7X7X7X7X7X7X7X7X7X7X7X7X7X",
"7X7X7X7X7X7X7X7X7X7X^.X.Z j N a %.x < a b $ + b b ; ; b b < < : : b x 3 b r.u 2 j s c : a $ Z ..|.OX7X7X7X7X7X7X7X7X7X7X7X7X7X7X",
"7X7X7X7X7X7X7X7X7X7X7XZ.x.7 d b <.=.X 3 b b x p x p 2 a i j j : X 1 < < a q.S x m B j % . N 9.h | _ 7X7X7X7X7X7X7X7X7X7X7X7X7X7X",
"7X7X7X7X7X7X7X7X7X7X7X-X6Xx.B.k =.t.3 1 : j p ; < a %.y.*.m p : < p p 3 b b r.S z J n n b 9.' R.W 7X7X7X7X7X7X7X7X7X7X7X7X7X7X7X",
"7X7X7X7X7X7X7X7X7X7X7X7X;X`.V.k %.%.j 8.2 $ : x : a %.S m b s < 1 2 x b n x b 1 : 4 A e.m.2.( 7X7X7X7X7X7X7X7X7X7X7X7X7X7X7X7X7X",
"7X7X7X7X7X7X7X7X7X7X7X7X/.'.S.8.1 $ b p b s 1 b 1 $ 3 a b s y b b b *.j 5 Z 3 < b H * d 0 E 7X7X7X7X7X7X7X7X7X7X7X7X7X7X7X7X7X7X",
"7X7X7X7X7X7X7X7X7X7X7X7X7X^ ,.&.3 2 t.G g A n s a a p p %.b b =.x a t.b a Z a G J 7 ^.T.U 7X7X7X7X7X7X7X7X7X7X7X7X7X7X7X7X7X7X7X",
"7X7X7X7X7X7X7X7X7X7X7X7X7X7X7X8.*.i.X.#.i.f Z G *.b %.k *.p x m a - x b %.%.A 9.0 ~.7X7X7X7X7X7X7X7X7X7X7X7X7X7X7X7X7X7X7X7X7X7X",
"7X7X7X7X7X7X7X7X7X7X7X7X7X7X7XC.w 0 7X7X8 J.9 0 z.A l a *.m 6.= Z C.Z -.9.z.e [ J.7X7X7X7X7X7X7X7X7X7X7X7X7X7X7X7X7X7X7X7X7X7X7X",
"7X7X7X7X7X7X7X7X7X7X7X7X7X7Xa.7.>.~.7X7X8 7X7XQ 0  .q b 8.A 6.z.>.;.Q.&.] +.K.7X7X7X7X7X7X7X7X7X7X7X7X7X7X7X7X7X7X7X7X7X7X7X7X7X",
"7X7X7X7X7X7X7X7X7X7X7X7X7X7X) } oX7X7X7X7X7X7X7X7XY U.A i g b oX_.K.#X%X.XR.7X7X7X7X7X7X7X7X7X7X7X7X7X7X7X7X7X7X7X7X7X7X7X7X7X7X",
"7X7X7X7X7X7X7X7X7X7X7X7X7X7X7XL.7X7X7X7X7X7X7X7X7X7X! >.N P ] +X7X7X7X7X7X7X7X7X7X7X7X7X7X7X7X7X7X7X7X7X7X7X7X7X7X7X7X7X7X7X7X7X",
"7X7X7X7X7X7X7X7X7X7X7X7X7X7X7X7X7X7X7X7X7X7X7X7X7X7X7X7X7X7X).` 7X7X7X7X7X7X7X7X7X7X7X7X7X7X7X7X7X7X7X7X7X7X7X7X7X7X7X7X7X7X7X7X",
"7X7X7X7X7X7X7X7X7X7X7X7X7X7X7X7X7X7X7X7X7X7X7X7X7X7X7X7X7X7X7X7X7X7X7X7X7X7X7X7X7X7X7X7X7X7X7X7X7X7X7X7X7X7X7X7X7X7X7X7X7X7X7X7X",
"7X7X7X7X7X7X7X7X7X7X7X7X7X7X7X7X7X7X7X7X7X7X7X7X7X7X7X7X7X7X7X7X7X7X7X7X7X7X7X7X7X7X7X7X7X7X7X7X7X7X7X7X7X7X7X7X7X7X7X7X7X7X7X7X",
"7X7X7X7X7X7X7X7X7X7X7X7X7X7X7X7X7X7X7X7X7X7X7X7X7X7X7X7X7X7X7X7X7X7X7X7X7X7X7X7X7X7X7X7X7X7X7X7X7X7X7X7X7X7X7X7X7X7X7X7X7X7X7X7X"
};
