/* XPM */
static char *result[] = {
/* columns rows colors chars-per-pixel */
"64 64 84 1 ",
"  c #020202",
". c #040806",
"X c #080807",
"o c #04070B",
"O c #070808",
"+ c #0B0B0C",
"@ c #070D12",
"# c #0D0D10",
"$ c #0F1010",
"% c #141314",
"& c #191917",
"* c #171619",
"= c #1B1B1C",
"- c #1F1F21",
"; c #232324",
": c #262628",
"> c #26292C",
", c #2B2B2C",
"< c #2F2F31",
"1 c #333333",
"2 c #3A3936",
"3 c #373639",
"4 c #373A3A",
"5 c #3C3C3C",
"6 c #3E3E40",
"7 c #423F43",
"8 c #3F4344",
"9 c #444445",
"0 c #434945",
"q c #454A4A",
"w c #4B4C4C",
"e c #504F4F",
"r c #4E4F50",
"t c #4E5152",
"y c #535454",
"u c #565857",
"i c #555659",
"p c #59565B",
"a c #56595B",
"s c #5A5B5C",
"d c #605E5D",
"f c #5F615F",
"g c #5D5E61",
"h c #645F65",
"j c #5E6162",
"k c #636464",
"l c #656867",
"z c #646669",
"x c #69666B",
"c c #656A6A",
"v c #6B6B6C",
"b c #70706F",
"n c #6C6F70",
"m c #726E74",
"M c #6E7273",
"N c #737474",
"B c #7C7977",
"V c #747779",
"C c #75797A",
"Z c #7A7A7B",
"A c #807B7E",
"S c #7E7F80",
"D c #837E84",
"F c #7D8081",
"G c #838383",
"H c #878588",
"J c #8B8B8B",
"K c #8E8D91",
"L c #938E93",
"P c #8F9090",
"I c #939393",
"U c #989697",
"Y c #99979A",
"T c #9B9B9B",
"R c #9F9BA1",
"E c #A3A1A3",
"W c #A8A6A9",
"Q c #ABAAAA",
"! c #B3B0AC",
"~ c #B5B5B2",
"^ c #B8B7B4",
"/ c #C7C7C6",
"( c #E1E1DF",
") c None",
/* pixels */
"))))))))))))))))))))))))))))))))))))))))))))))))))))))))))))))))",
"))))))))))))))))))))))))))))))))))))))))))))))))))))))))))))))))",
"))))))))))))))))))))))))))))))))))))))))))))))))))))))))))))))))",
"))))))))))))))))))))))))))))))))))))))))))))))))))))))))))))))))",
"))))))))))))))))))))))))))))))))))))))))))))))))))))))))))))))))",
"))))))))))))))))))))))))))))))))))))))))))))))))))))))))))))))))",
"))))))))))))))))))))))))))))))))))))))))))))))))))))))))))))))))",
"))))))))))))))))))))))))))))))))))))))))))))))))))))))))))))))))",
"))))))))))))))))))))))))))))))))))))))))))))))))))))))))))))))))",
")))))))))))))))))))))))))yuyyyeeww95221)))))))))))))))))))))))))",
"))))))))))))))))))))))skvvlkdsyeww9996623)))))))))))))))))))))))",
"))))))))))))))))))))cNZBbvlkssyew9w9766762<)))))))))))))))))))))",
")))))))))))))))))))sBBZZNvlkdsyyw9q9572,&*&&;)))))))))))))))))))",
")))))))))))))))));*X =7kBbvkksyeeq9762%$===**;))))))))))))))))))",
"))))))))))))))));%+&&*  uBvldssew9995-$+   +&&:)))))))))))))))))",
"))))))))))))))):&+    ++,vbxkdseww992- ,eu9=*;:1))))))))))))))))",
")))))))))))))))1; 2vBVy&-lNlldsyew996&qGIIJn31365)))))))))))))))",
"))))))))))))))9w99GQQQTk gVlkhdyeww96:BEEETJy6779)))))))))))))))",
"))))))))))))))yuydUQQQWJ&sZvlksyew995<HTPJIJgrrrw)))))))))))))))",
"))))))))))))))ssusLEGZTI3eZbxkdyew9q6,JJ4<DJgryryw))))))))))))))",
")))))))))))))yssyyJI1 BT99Zvvkduew906,JBdVVJpiyrww))))))))))))))",
")))))))))))))esuuyGI!BtTw5Cmxksuyww95:Jk^(sJigiree))))))))))))))",
")))))))))))))ysyuyBF(/>Is,Bblkduew995:HcT^dGyiirye))))))))))))))",
"))))))))))))))siuyvJTPtPd=bbxkdyyw9w2:AZ2=BZiigiye))))))))))))))",
"))))))))))))))iisujJZsBJkocNlksyew991:BJHJGbspiryy))))))))))))))",
"))))))))))))))yaaasGPPJHk kbkdsyew99<;NGGGGvipgiy)))))))))))))))",
"))))))))))))))yaaaaBGGZGk uvksyyw959,-bGAZBvaaayy)))))))))))))))",
"))))))))))))))yaiaiMGZZBd evssyw9922,&kbbNNlsaair)))))))))))))))",
")))))))))))))))iiiicVNbbs%1kkuyw9655;&scxvlkgigaw)))))))))))))))",
")))))))))))))))riiajvclku5 <eyrw95<* 5udshksigiyw)))))))))))))))",
")))))))))))))))taaajldssyw6@  +%X  .5eyuyyiyiiyyw)))))))))))))))",
")))))))))))))))yaaafduyeewww93,,,39wewwerrrwrgiyr)))))))))))))))",
"))))))))))))))))aassywwwqq99qrrreww999q999qqepitr)))))))))))))))",
"))))))))))))))))aasy22<,<,,,;--:;--=;-;;;=;:5ytt))))))))))))))))",
"))))))))))))))))sji<                        X5wt))))))))))))))))",
"))))))))))))))))cc5 X.X .               X . X36g))))))))))))))))",
")))))))))))))))))FH3 % X                  + 7HDn))))))))))))))))",
")))))))))))))))))QYw $ . X               X. pAQ)))))))))))))))))",
")))))))))))))))))EZt +X X    XX          + $pmR)))))))))))))))))",
")))))))))))))))))Ynr +X.X.             .X+ *yxL)))))))))))))))))",
"))))))))))))))))WJz9 @X  X               + =yhLR))))))))))))))))",
"))))))))))))))))RCg4 %X$&X+XXX..ooXo X &;X -ygDR))))))))))))))))",
"))))))))))))))))Uxg6   -q              ;2  =ygmU))))))))))))))))",
")))))))))))))))EJhir61<,,:::;;;;;:;::::,:1,5rpxU))))))))))))))))",
")))))))))))))))Tv5:-:;-&$&$+++.+$%#%*@X%***&:3wHW)))))))))))))))",
")))))))))))))))Z &1112358899999099999wwq999993.pK)))))))))))))))",
"))))))))))))))ZuybGGGHHJJHJJPPJJHJJJHJHHHGGZCzy6j)))))))))))))))",
"))))))))))))))ffkkfkfdkkllcccvnMvMMNVNVVVZZZVNjaa)))))))))))))))",
"))))))))))))))ss0456888tttaifffjjjjlccnMMMVCVCNaa)))))))))))))))",
"))))))))))))))sy8qqtttuaajajjcjjccMnMMMNCVCVCSSgi)))))))))))))))",
")))))))))))))))s89qrttaajaijjjjncncnMMMVVCCVCSZkd)))))))))))))))",
")))))))))))))))MFtqttuuaaajjjcjjcnMMMMVCCFSSFZSZ))))))))))))))))",
")))))))))))))))))vsgjjzzlcccccnncMMMMMMMMMVVNzZ)))))))))))))))))",
")))))))))))))))))))))))))))))))))))))))ittt)))))))))))))))))))))",
"))))))))))))))))))))))))))))))))))))))))))))))))))))))))))))))))",
"))))))))))))))))))))))))))))))))))))))))))))))))))))))))))))))))",
"))))))))))))))))))))))))))))))))))))))))))))))))))))))))))))))))",
"))))))))))))))))))))))))))))))))))))))))))))))))))))))))))))))))",
"))))))))))))))))))))))))))))))))))))))))))))))))))))))))))))))))",
"))))))))))))))))))))))))))))))))))))))))))))))))))))))))))))))))",
"))))))))))))))))))))))))))))))))))))))))))))))))))))))))))))))))",
"))))))))))))))))))))))))))))))))))))))))))))))))))))))))))))))))",
"))))))))))))))))))))))))))))))))))))))))))))))))))))))))))))))))",
"))))))))))))))))))))))))))))))))))))))))))))))))))))))))))))))))"
};
