/* XPM */
static char *result[] = {
/* columns rows colors chars-per-pixel */
"64 64 218 2 ",
"   c #000000",
".  c #0C0603",
"X  c #140900",
"o  c #171407",
"O  c #000019",
"+  c #171615",
"@  c #0D1016",
"#  c #240F17",
"$  c #2A271C",
"%  c #322C18",
"&  c #32321E",
"*  c #292104",
"=  c #000025",
"-  c #00012B",
";  c #000926",
":  c #181E2A",
">  c #000132",
",  c #000C33",
"<  c #00003B",
"1  c #000B3B",
"2  c #08003D",
"3  c #011334",
"4  c #051A36",
"5  c #1C2534",
"6  c #142339",
"7  c #1A2539",
"8  c #0B233D",
"9  c #242424",
"0  c #2B2B2B",
"q  c #292928",
"w  c #3C3B2C",
"e  c #373628",
"r  c #232835",
"t  c #2A2E36",
"y  c #252C39",
"u  c #2D3035",
"i  c #2D323B",
"p  c #27313B",
"a  c #343434",
"s  c #3B3A34",
"d  c #34363A",
"f  c #3D3D3D",
"g  c #37383B",
"h  c #2E302A",
"j  c #413F3D",
"k  c #413E33",
"l  c #413D29",
"z  c #3F403D",
"x  c #484428",
"c  c #434235",
"v  c #43413D",
"b  c #4A4738",
"n  c #000241",
"m  c #001B43",
"M  c #001245",
"N  c #110058",
"B  c #0C2644",
"V  c #012449",
"C  c #042647",
"Z  c #182B46",
"A  c #1D324E",
"S  c #1C3350",
"D  c #242B4C",
"F  c #242947",
"G  c #2C3343",
"H  c #273348",
"J  c #333944",
"K  c #3B3D43",
"L  c #343C4B",
"P  c #373C49",
"I  c #22295C",
"U  c #222954",
"Y  c #2C3B52",
"T  c #263751",
"R  c #353F51",
"E  c #000067",
"W  c #000073",
"Q  c #00007C",
"!  c #181B70",
"~  c #241D78",
"^  c #212B69",
"/  c #293474",
"(  c #273070",
")  c #162A7A",
"_  c #3F4043",
"`  c #3D424B",
"'  c #3B4251",
"]  c #364152",
"[  c #424242",
"{  c #484743",
"}  c #4B4944",
"|  c #44464B",
" . c #4B4B4B",
".. c #47484A",
"X. c #504F4A",
"o. c #514D43",
"O. c #555245",
"+. c #54524D",
"@. c #5C5848",
"#. c #444953",
"$. c #4B4D54",
"%. c #434854",
"&. c #4E5155",
"*. c #545555",
"=. c #595753",
"-. c #5A5955",
";. c #555558",
":. c #5C5B59",
">. c #575859",
",. c #504F50",
"<. c #625D4B",
"1. c #605E59",
"2. c #6B644D",
"3. c #67614C",
"4. c #656154",
"5. c #6D695A",
"6. c #696556",
"7. c #736D58",
"8. c #7A7254",
"9. c #76705C",
"0. c #7B745C",
"q. c #777053",
"w. c #5A5A64",
"e. c #46496F",
"r. c #5D627B",
"t. c #6C6C6C",
"y. c #676768",
"u. c #7C7961",
"i. c #737373",
"p. c #7C7C7C",
"a. c #6B6E77",
"s. c #837B5B",
"d. c #847A58",
"f. c #847C61",
"g. c #887F64",
"h. c #8C825D",
"j. c #90855E",
"k. c #8C8363",
"l. c #958962",
"z. c #9A8D64",
"x. c #988E69",
"c. c #928866",
"v. c #9C916A",
"b. c #A2956A",
"n. c #A6996C",
"m. c #AB9D6D",
"M. c #A19366",
"N. c #AB9E72",
"B. c #B2A26E",
"V. c #AEA071",
"C. c #B4A572",
"Z. c #BBAB75",
"A. c #BBAC77",
"S. c #C3B379",
"D. c #CCBA7D",
"F. c #C6B479",
"G. c #D1BD7E",
"H. c #C1AE77",
"J. c #000083",
"K. c #00018A",
"L. c #000A87",
"P. c #001689",
"I. c #0E078B",
"U. c #152B8A",
"Y. c #253383",
"T. c #29368E",
"R. c #2A398F",
"E. c #273688",
"W. c #243690",
"Q. c #283790",
"!. c #2B3B93",
"~. c #263996",
"^. c #303391",
"/. c #0C4B93",
"(. c #354195",
"). c #3B4695",
"_. c #384898",
"`. c #324B97",
"'. c #33649F",
"]. c #295FA4",
"[. c #316AA5",
"{. c #1667AE",
"}. c #434C97",
"|. c #485093",
" X c #777989",
".X c #486EA2",
"XX c #7F8182",
"oX c #5499B9",
"OX c #488AB3",
"+X c #589AC0",
"@X c #5CA9C7",
"#X c #66ACC4",
"$X c #6EB6CC",
"%X c #70BAD2",
"&X c #76C5DD",
"*X c #838383",
"=X c #8B8C8C",
"-X c #979797",
";X c #BCB182",
":X c #B2B2B2",
">X c #A4A5A5",
",X c #CCBC83",
"<X c #C1B584",
"1X c #D1BE80",
"2X c #D5C281",
"3X c #DAC683",
"4X c #DDC984",
"5X c #DCCA89",
"6X c #E1CC86",
"7X c #E2CE89",
"8X c #E6D18A",
"9X c #EAD58B",
"0X c #EED98E",
"qX c #F2DB8E",
"wX c #F4DC90",
"eX c #FAE091",
"rX c #C4C4C5",
"tX c None",
/* pixels */
"tXtXtXtXtXtXtXtXtXtXtXtXtXtXtXtXtXtXtXtXtXtXtXtXtXtXtXtXtXtXtXtXtXtXtXtXtXtXtXtXtXtXtXtXtXtXtXtXtXtXtXtXtXtXtXtXtXtXtXtXtXtXtXtX",
"tXtXtXtXtXtXtXtXtXtXtXtXtXtXtXtXtXtXtXtXtXtX&.e.W W E Q K.K.K.L.P.K.K.J.J.Q ) e.tXtXtXtXtXtXtXtXtXtXtXtXtXtXtXtXtXtXtXtXtXtXtXtX",
"tXtXtXtXtXtXtXtXtXtXtXtXtXtXtXtXtXtXtX&./ W /.OX.X)./ / (.(.(.!.!.(.).).).).!.I.Q Q |.a.tXtXtXtXtXtXtXtXtXtXtXtXtXtXtXtXtXtXtXtX",
"tXtXtXtXtXtXtXtXtXtXtXtXtXtXtXtXtXe.Q Q I..X$X$X$XoXY.! E.!.Q.!.Q.Q.Q.Q.W.R.!.).}.}.P.J.J. XtXtXtXtXtXtXtXtXtXtXtXtXtXtXtXtXtXtX",
"tXtXtXtXtXtXtXtXtXtXtXtXtXtXtXe.E Q ^.}.`.oX$X$X%XoXI./ ^.!.!.^.!.!.!.!.!.!.!.E.W.!.(.}.).J.J. XtXtXtXtXtXtXtXtXtXtXtXtXtXtXtXtX",
"tXtXtXtXtXtXtXtXtXtXtXtXtXr.J.K.).'.OX+X@XoX#X&X%X'.W.(.!.!.Q.T.T.R.!.!.!.!.!.!.!.~.!.W.!.}._.K.L. XtXtXtXtXtXtXtXtXtXtXtXtXtXtX",
"tXtXtXtXtXtXtXtXtXtXtXw.U.J.).}.W.{.@X#XOX'.[.oX[.! ( I U D F F F U U ^ ) / !.(.`.~.R.!.!.W.!.|.W.W tXtXtXtXtXtXtXtXtXtXtXtXtXtX",
"tXtXtXtXtXtXtXtXtXtXtXW W.}.!.!.T./.].`./ ~ N 2 # s l w e k k k s l x x l a F ^ ( E.~.(.!.R.!.W.).W.tXtXtXtXtXtXtXtXtXtXtXtXtXtX",
"tXtXtXtXtXtXtXtXtXtXtXK.|.W.!.R.!.E.! ! F u c x b r - | ;.*.;.*.:.J = = - a b x e r I Y.~.!.R.!.!.P.tXtXtXtXtXtXtXtXtXtXtXtXtXtX",
"tXtXtXtXtXtXtXtXtXtXtXK.).!.!.!.~.( F a c b 4 = - b d.1.;.:.>.1.$.0.B.j.2.r O - s b e q I Y.!.!.!.P.tXtXtXtXtXtXtXtXtXtXtXtXtXtX",
"tXtXtXtXtXtXtXtXtXtXtXK._.!.!.Y.D h c c - = 3.m.2X8X6X8.H +.| X.G q.G.4X6X6XF.c.t = y b e 0 ^ E.(.P.tXtXtXtXtXtXtXtXtXtXtXtXtXtX",
"tXtXtXtXtXtXtXtXtXtXtXL._.~.^ 0 s b 3 - h.D.9X3XC.s.<.g a s a a g a t b 2.z.F.7X7XC.O.- a c & F E.L.tXtXtXtXtXtXtXtXtXtXtXtXtXtX",
"tXtXtXtXtXtXtXtXtXtXtXJ.(.U & v g - 8.2X0XA.8.t - ; 5 d f s g s g s a r 4 - - b l.2X9XZ.f - f s e E tXtXtXtXtXtXtXtXtXtXtXtXtXtX",
"tXtXtXtXtXtXtXtXtXtXtXP.D w { 3 v A.0XS.@.- : d f f j g g s g f g g s f k f g t - - d.4X8Xh.- u v   *XtXtXtXtXtXtXtXtXtXtXtXtXtX",
"tXtXtXtXtXtXtXtXtXtXtX= c [ - q.7X6Xq.= t v f s f f f g g f g f f f s g g f s s v j - - m.0XA.u 4 {   *XtXtXtXtXtXtXtXtXtXtXtXtX",
"tXtXtXtXtXtXtXtXtXtX{ $ { - l.0XA.4 3 } j f f f f f f f f f f g f g g f f g g f g f v v O 2.8X4Xo.- X.  =XtXtXtXtXtXtXtXtXtXtXtX",
"tXtXtXtXtXtXtXtXtX*.  [ - m.qXM.- j } g f f f f f f f f f f f f f f f g f f g f f g g s } - u 2X7X<., }   =XtXtXtXtXtXtXtXtXtXtX",
"tXtXtXtXtXtXtXtX:.  +.- b.qXj.= o.[ f K j f v f K f j f f f f f f f f f f f f f f f f f g o.t 4 1X8XO.r v   g.tXtXtXtXtXtXtXtXtX",
"tXtXtXtXtXtXtXtX  X.> c.qXc.= O.v f v v [ f K v f f f [ f j f f f f f f f f f f f f f f v g } g > 1X5Xt [ o ;.tXtXtXtXtXtXtXtXtX",
"tXtXtXtXtXtXtXf s p 2.0Xm.- O._ _ [ K [ [ [ v _ [ j [ [ v K z [ K v v f f f f j f f f f f z g } d 7 7XF.- X.  *XtXtXtXtXtXtXtXtX",
"tXtXtXtXtXtXy.   .y 3XD.> o.[ [ [ [ [ [ [ K v [ [ [ [ [ [ K [ [ v f [ K K v f K f K j f f f [ g } 4 3.qXM.1 b :  XtXtXtXtXtXtXtX",
"tXtXtXtXtXtX9 v 3 N.8X| K } [ [ [ [ [ [ [ [ [ [ [ [ [ [ [ j [ [ [ [ [ v _ j [ j v f K v f f f K f b - n.0X@.K   *XtXtXtXtXtXtXtX",
"tXtXtXtXtXt.  _ <.0Xc.> } [ { [ [ [ [ [ [ [ [ [ [ [ [ [ [ [ [ [ [ [ [ v [ z [ f v K v [ f [ [ f [ j f 7 2XF.< }   XXtXtXtXtXtXtX",
"tXtXtXtXtXg v < S.2X3 } [ [ [ | [ ..| [ } ..[ [ [ ..[ [ [ [ [ [ [ [ [ [ [ [ [ [ [ v _ [ [ [ f [ j [ [ 4 d.9X8.H   *XtXtXtXtXtXtX",
"tXtXtXtXt.  P <.9Xs.6 { [ | [ [ { ..[ [ [ [ { [ { [ { [ { [ [ { [ [ [ [ [ [ [ [ [ [ [ [ [ _ [ f [ v [ K 5 D.D.< j d i.tXtXtXtXtX",
"tXtXtXtX1.% n C.3XG [ [ [ [ [ { [ [ | { | [ [ | [ | ..[ [ ....[ [ [ [ [ [ [ [ [ [ [ [ [ [ v [ _ [ [ [ [ 3 j.8X<.L   -XtXtXtXtXtX",
"tXtXtXtX$ f K 6Xn.3 [ [ [ [ [ [ [ | [ [ [ } [ [ { [ [ [ [ [ [ [ | [ [ | ..[ [ [ [ [ [ [ [ [ [ [ j [ [ [ i { 4XB.n X p.tXtXtXtXtX",
"tXtXtXt.  B d.9X5.y [ [ [ [ [ [ [ [ { [ [ ..[ [ [ | [ { ..[ [ [ [ [ [ { [ [ [ [ [ [ [ [ [ [ [ [ [ [ [ [ [ , C.2XH a v tXtXtXtXtX",
"tXtXtXy.X n Z.G.g g [ K [ [ [ [ [ [ [ [ [ [ [ [ [ [ [ [ [ [ [ [ [ [ [ [ [ [ [ [ [ [ [ [ [ [ [ [ [ [ [ [ { , s.6X5.H . -XtXtXtXtX",
"tXtXtX>.$ B 2XC.3 [ v [ K v f [ [ [ _ [ [ [ [ [ [ [ [ [ [ [ [ [ [ [ [ [ [ [ [ [ [ [ [ [ [ [ [ [ [ j [ K } 6 <.6Xj.V   -XtXtXtXtX",
"tXtXtXs : o.6Xl.3 v K z j v [ v [ [ K j [ v [ [ [ [ [ [ [ [ j [ j [ [ [ [ [ [ [ [ [ [ [ [ [ [ v [ [ [ j { i K G.B.m   =XtXtXtXtX",
"tXtXtX* 3 7.6Xq.4 v f j f f f K j j v [ f _ K v [ [ K [ v [ [ _ K [ [ [ [ [ [ [ _ [ j [ [ _ _ [ j _ [ [ [ f 6 F.F.C o i.tXtXtXtX",
"tXtXtX  2 d.4X<.5 j f f f f f f _ f K j f [ K [ f [ v K f [ [ f v [ [ [ [ [ [ K [ [ _ [ [ v [ [ K [ _ _ [ [ > B.G.G 9 :.tXtXtXtX",
"tXtXtX  < j.4X<.5 v f f g f f f f f j z f f v v [ v K [ [ _ j [ v K f [ f [ j v j [ f [ v K [ f v v f v [ { > n.2X..:  .tXtXtXtX",
"tXtXtX  < z.6Xb r v f f f f f f f f f f f j j K f f f j f f K v [ [ j v v K _ v [ f v K K f [ [ v [ [ K j [ > M.2X .: { tXtXtXtX",
"tXtXtX  < z.6Xb 5 [ f f f f f f f f f f j K f v f [ [ f f [ j v f f [ K [ [ v K v K [ v v [ [ f K f [ v j { - M.2XO.: [ tXtXtXtX",
"tXtXtX  < c.4X<.5 v f f f f f f f f f f f f z K f v K j K [ j K v f v K f _ v K f [ f _ j [ [ [ v [ v [ v [ - n.2X..r :.tXtXtXtX",
"tXtXtX  , s.4X<.6 v f f f f f f f f f f f f [ f [ f [ f j K K v K f [ f [ j [ v [ _ [ j j j K j v K K v [ [ > C.1X|   f tXtXtXtX",
"tXtXtX% 6 3.5Xq.4 j f f f f f f f f f f f j f j [ f f _ [ j [ [ v [ j [ [ f K v [ j K [ _ [ K j [ K v _ [ f 3 A.D.  i.rXtXtXtXtX",
"tXtXtX  O } 4Xl., v f f f f f f f f f v _ f [ K v v K v j j K j v K [ K v [ f [ f [ v j [ K [ j f [ [ f { d d D.A.= } rXtXtXtXtX",
"tXtXtXrXt.  2XC.3 z [ K v f v f [ f [ [ v f [ K j j [ [ j K j [ [ [ [ K [ [ [ [ [ [ [ j j [ [ [ v _ [ [ { 6 <.5Xz.m   >XtXtXtXtX",
"tXtXtX:Xl O A.1Xi f [ z [ [ [ [ [ [ [ [ _ [ [ v [ [ [ j [ [ [ [ [ [ [ [ [ [ [ [ [ [ [ [ [ [ [ [ [ [ [ [ { , h.6X2.6 . :XtXtXtXtX",
"tXtXtX=XX > s.6X6.p } [ [ [ [ [ [ [ [ [ [ [ [ [ [ [ [ [ [ [ [ { [ ..[ [ [ [ [ ..[ [ [ [ [ { [ [ [ [ [ } [ 3 Z.2XZ 9 =.g.tXtXtXtX",
"tXtXtXtX1.+ G 6Xn.4 } [ [ [ [ | [ [ ..[ [ { ..[ ..[ ..{ | [ ..[ { [ [ { { | { [ ..[ [ | [ | { [ [ [ [ } J  .4XC.> k >.t.tXtXtXtX",
"tXtXtXtX*X% < B.3XJ [ [ [ { ..[ { { { | ..} | { { ..{ [ [ ..{ ....} } [ ..{ { [ ..{ [ { ..{ { ....[ { ..6 k.8X2., =.@     tXtXtX",
"tXtX-Xp.w.} i <.9Xk.G  ... ...}  ..... . . ..... . ... .=.+.X. .X. .X. ..... .........{ ......[ .. .+. .G D.D.> o.f t :.  tXtXtX",
"tXtXt.  a ;.=.- F.2XG =.+. ... . . . . . . . . . . .X...B m Z J G Z 7 P X. . . . . ....... .X.=.+.| K 1 s.0X8.4 X.        tXtXtX",
"tXtX=X+ 0   X.K <.0Xz.n $. .+.=.*.*.,.X.$. . .*.$.X.#.<.z.n.b.v.n.N.A.k.K $. . . .X.+.=.=.+.K B B { 6.7.3XS.M k *.i.t.t.t tXtXtX",
"tXtXp.  ..*Xt.X.< Z.8X7.1. .D A R ,.-.1.-.=.=.*.*.=.L g.qXqX7X,X6XqXwXG.| =.-.-.=.+.| Z M Z =.s.z.n.u.A.9X+...o t.tXtXtXtXtXtXtX",
"tXtX*X*XtXtXy.s  .| 4X5Xf.v.z.k.7.$.D V B L ' $.,.-.| n.qX6X8X2X5X8X9X8X<.C B M m P -.0.b.C.C.m.x.6.0.0Xx.B k ..tXtXtXtXtXtXtXtX",
"tXtXtXtXtXtXtXy.h J 0.0XV.$.c.n.C.A.Z.V.x.g.7.4.*.L C F.9X;X,X,X<X;X8XwXC.7.x.m.Z.S.S.Z.n.c.5.:.]  .6XF.m  .u c.tXtXtXtXtXtXtXtX",
"tXtXtXtXtXtXtXtXy.X.B x.0Xc.M :.>.u.k.n.Z.F.,X1XD.D.D.9X0X5X5X6X6X6X7X6X1XH.Z.N.v.f.5.=.$.%.*.%.$.4X5X` | ;.   XtXtXtXtXtXtXtXtX",
"tXtXtXtXtXtXtXtXt.u 1.C V.0Xc.V -.$.#.%.$.*.1.5.0.g.k.k.k.c.c.g.f.0.5.1.=.*.$.%.#.#.&.&.;.1.$.*.3X8X-.d >.f 9   t.tXtXtXtXtXtXtX",
"tXtXtXtXtXtXtXi.  q :.:.V N.0Xb.A -.:.=.*.;.&.&.$.%.#.#.#.%.%.%.%.$.&.&.*.*.;.*.>.-.-.:.:.] 5.6X8X4.G +.q   $ a   K tXtXtXtXtXtX",
"tXtXtXtXtXtXp.  + 0   [ :.B v.0XA.$.%.>.>.>.>.=.>.>.>.>.-.>.:.=.-.-.>.-.>.-.-.>.>.>.>.&.R c.0X3X-.J { a t.a.  ..  i.tXtXtXtXtXtX",
"tXtXtXtXtXp.  9 j   y.i.q :.T u.6X4Xf.R %.*.:.:.>.=.=.;.;.*.=.>.;.;.*.;.;.-.:.>.=.$.] 6.F.wXA.J K { u t.tXtXp.  t.*XtXtXtXtXtXtX",
"tXtXtXtXtXtX=X    [ tXtXi.g -.` %.A.0XF.u.%.R $.*.-.:.:.:.:.:.=.1.-.1.1.-.;.$.R ' 5.C.8X6Xk.3 ,.}  .tXtXtXtXtX*X=XtXtXtXtXtXtXtX",
"tXtXtXtXtXtXtX*X  i.tXtXtXtX*.+.:.m u.2X7XF.l.1.' Y R %.$.$.*.*.&.$.%.R Y L -.g.A.8X9XN.| Z :.[ t.tXtXtXtXtXtXtXtXtXtXtXtXtXtXtX",
"tXtXtXtXtXtXtXtXtXtXtXtXtXtXtX>.[ 6.R Y k.1X7X4XS.b.s.5.=.$.#.#.$.;.6.f.v.Z.4X9X6XN.=.A [ +.*.  p.tXtXtXtXtXtXtXtXtXtXtXtXtXtXtX",
"tXtXtXtXtXtXtXtXtXtXtXtXtXtXtXtX   .o.v T Y 9.N.D.4X6X3X1XD.F.D.1X1X4X6X6X3XH.k.$.S K % K f . f   *XtXtXtXtXtXtXtXtXtXtXtXtXtXtX",
"tXtXtXtXtXtXtXtXtXtXtXtXtXtXtX+ 9   a  .w q G B ] y.g.M.V.Z.A.S.Z.C.m.l.9.$.T C r * s *.tXtX@ q   _ tXtXtXtXtXtXtXtXtXtXtXtXtXtX",
"tXtXtXtXtXtXtXtXtXtXtXtXtXtXtX  +.  tXtXtX .[ q X ; 3 V S T Y Y Y S C m , O . e { tXtXtXtXtX    [ tXtXtXtXtXtXtXtXtXtXtXtXtXtXtX",
"tXtXtXtXtXtXtXtXtXtXtXtXtXtXtXtX    tXtXtXtXtXtXtXtXtXtXo .       X + tXtXtXtXtXtXtXtXtXtXtXtXtXtXtXtXtXtXtXtXtXtXtXtXtXtXtXtXtX",
"tXtXtXtXtXtXtXtXtXtXtXtXtXtXtXtXtXtXtXtXtXtXtXtXtXtXtXtXtXtXtXtXtXtXtXtXtXtXtXtXtXtXtXtXtXtXtXtXtXtXtXtXtXtXtXtXtXtXtXtXtXtXtXtX"
};
