/* XPM */
static char *result[] = {
/* columns rows colors chars-per-pixel */
"64 64 218 2 ",
"   c #000000",
".  c #0C0603",
"X  c #140900",
"o  c #171407",
"O  c #000019",
"+  c #171615",
"@  c #0D1016",
"#  c #240F17",
"$  c #2A271C",
"%  c #322C18",
"&  c #32321E",
"*  c #292104",
"=  c #000025",
"-  c #00012B",
";  c #000926",
":  c #181E2A",
">  c #000132",
",  c #000C33",
"<  c #00003B",
"1  c #000B3B",
"2  c #08003D",
"3  c #011334",
"4  c #051A36",
"5  c #1C2534",
"6  c #142339",
"7  c #1A2539",
"8  c #0B233D",
"9  c #242424",
"0  c #2B2B2B",
"q  c #292928",
"w  c #3C3B2C",
"e  c #373628",
"r  c #232835",
"t  c #2A2E36",
"y  c #252C39",
"u  c #2D3035",
"i  c #2D323B",
"p  c #27313B",
"a  c #343434",
"s  c #3B3A34",
"d  c #34363A",
"f  c #3D3D3D",
"g  c #37383B",
"h  c #2E302A",
"j  c #413F3D",
"k  c #413E33",
"l  c #413D29",
"z  c #3F403D",
"x  c #484428",
"c  c #434235",
"v  c #43413D",
"b  c #4A4738",
"n  c #000241",
"m  c #001B43",
"M  c #001245",
"N  c #110058",
"B  c #0C2644",
"V  c #012449",
"C  c #042647",
"Z  c #182B46",
"A  c #1D324E",
"S  c #1C3350",
"D  c #242B4C",
"F  c #242947",
"G  c #2C3343",
"H  c #273348",
"J  c #333944",
"K  c #3B3D43",
"L  c #343C4B",
"P  c #373C49",
"I  c #22295C",
"U  c #222954",
"Y  c #2C3B52",
"T  c #263751",
"R  c #353F51",
"E  c #000067",
"W  c #000073",
"Q  c #00007C",
"!  c #181B70",
"~  c #241D78",
"^  c #212B69",
"/  c #293474",
"(  c #273070",
")  c #162A7A",
"_  c #3F4043",
"`  c #3D424B",
"'  c #3B4251",
"]  c #364152",
"[  c #424242",
"{  c #484743",
"}  c #4B4944",
"|  c #44464B",
" . c #4B4B4B",
".. c #47484A",
"X. c #504F4A",
"o. c #514D43",
"O. c #555245",
"+. c #54524D",
"@. c #5C5848",
"#. c #444953",
"$. c #4B4D54",
"%. c #434854",
"&. c #4E5155",
"*. c #545555",
"=. c #595753",
"-. c #5A5955",
";. c #555558",
":. c #5C5B59",
">. c #575859",
",. c #504F50",
"<. c #625D4B",
"1. c #605E59",
"2. c #6B644D",
"3. c #67614C",
"4. c #656154",
"5. c #6D695A",
"6. c #696556",
"7. c #736D58",
"8. c #7A7254",
"9. c #76705C",
"0. c #7B745C",
"q. c #777053",
"w. c #5A5A64",
"e. c #46496F",
"r. c #5D627B",
"t. c #6C6C6C",
"y. c #676768",
"u. c #7C7961",
"i. c #737373",
"p. c #7C7C7C",
"a. c #6B6E77",
"s. c #837B5B",
"d. c #847A58",
"f. c #847C61",
"g. c #887F64",
"h. c #8C825D",
"j. c #90855E",
"k. c #8C8363",
"l. c #958962",
"z. c #9A8D64",
"x. c #988E69",
"c. c #928866",
"v. c #9C916A",
"b. c #A2956A",
"n. c #A6996C",
"m. c #AB9D6D",
"M. c #A19366",
"N. c #AB9E72",
"B. c #B2A26E",
"V. c #AEA071",
"C. c #B4A572",
"Z. c #BBAB75",
"A. c #BBAC77",
"S. c #C3B379",
"D. c #CCBA7D",
"F. c #C6B479",
"G. c #D1BD7E",
"H. c #C1AE77",
"J. c #000083",
"K. c #00018A",
"L. c #000A87",
"P. c #001689",
"I. c #0E078B",
"U. c #152B8A",
"Y. c #253383",
"T. c #29368E",
"R. c #2A398F",
"E. c #273688",
"W. c #243690",
"Q. c #283790",
"!. c #2B3B93",
"~. c #263996",
"^. c #303391",
"/. c #0C4B93",
"(. c #354195",
"). c #3B4695",
"_. c #384898",
"`. c #324B97",
"'. c #33649F",
"]. c #295FA4",
"[. c #316AA5",
"{. c #1667AE",
"}. c #434C97",
"|. c #485093",
" X c #777989",
".X c #486EA2",
"XX c #7F8182",
"oX c #5499B9",
"OX c #488AB3",
"+X c #589AC0",
"@X c #5CA9C7",
"#X c #66ACC4",
"$X c #6EB6CC",
"%X c #70BAD2",
"&X c #76C5DD",
"*X c #838383",
"=X c #8B8C8C",
"-X c #979797",
";X c #BCB182",
":X c #B2B2B2",
">X c #A4A5A5",
",X c #CCBC83",
"<X c #C1B584",
"1X c #D1BE80",
"2X c #D5C281",
"3X c #DAC683",
"4X c #DDC984",
"5X c #DCCA89",
"6X c #E1CC86",
"7X c #E2CE89",
"8X c #E6D18A",
"9X c #EAD58B",
"0X c #EED98E",
"qX c #F2DB8E",
"wX c #F4DC90",
"eX c #FAE091",
"rX c #C4C4C5",
"tX c None",
/* pixels */
"tXtXtXtXtXtXtXtXtXtXtXtXtXtXtXtXtXtXtXtXtXtXtXtXtXtXtXtXtXtXtXtXtXtXtXtXtXtXtXtXtXtXtXtXtXtXtXtXtXtXtXtXtXtXtXtXtXtXtXtXtXtXtXtX",
"tXtXtXtXtXtXtXtXtXtXtXtXtXtXtXtXtXtXtXtXtXtXtXtXtXtXtXtXtXtXtXtXtXtXtXtXtXtXtXtXtXtXtXtXtXtXtXtXtXtXtXtXtXtXtXtXtXtXtXtXtXtXtXtX",
"tXtXtXtXtXtXtXtXtXtXtXtXtXtX*Xp.=Xt.-XtXtXtXtXtXtXtXtXtXtXtXtXtXtXtXtXtXtXtXtXtXtXtXtXtXtXtXtXtXtXtXtXtXtXtXtXtXtXtXtXtXtXtXtXtX",
"tXtXtXtXtXtXtXtXtXtXtXtXtXtX*X  +   i.tXtX-X:XrX  $             o k :.t.t.tXtXtXtXtXtXtXtXtXtXtXtXtXtXtXtXtXtXtXtXtXtXtXtXtXtXtX",
"tXtXtXtXtXtXtXtXtXtXtXtXtXtXtX..0 s :.*X1.X w t.O 6 , < < < 2 > 3 : * X   $ w.t.tXtXtXtXtXtXtXtXtXtXtXtXtXtXtXtXtXtXtXtXtXtXtXtX",
"tXtXtXtXtXtXtXtXp.tXtXtXtXtXtX*X  -...% + > O   ..2.d.j.z.z.j.h.7.,.B < B f %   g t.tXtXtXtXtXtXtXtXtXtXtXtXtXtXtXtXtXtXtXtXtXtX",
"tXtXtXtXtXtXtX=X  p.tXtXtXtXt.t. .=.i < G s.C.2X3X4X6X4X4X4X3X4X7X7X2XZ.s.K n P v   9 y.tXtXtXtXtXtXtXtXtXtXtXtXtXtXtXtXtXtXtXtX",
"tXtXtXtXtXtX*X  9   i.tXtXy.s X.P - <.C.7X7X2XC.j.8.3.@.O.O.O.<.q.l.Z.2X9X7XC.<.< _ v   f tXtXtXtXtXtXtXtXtXtXtXtXtXtXtXtXtXtXtX",
"tXtXtXtXtXtX    f +   t.y.e  .< 3.S.8X3Xn.2.i 3 , 4 6 7 r r 5 5 4 3 3 d 6.m.2X9XS.<.1  .a   :.tXtXtXtXtXtXtXtXtXtXtXtXtXtXtXtXtX",
"tXtXtXtXtXtXi.[   0 9 a +.G | A.0X3Xk.J 4 p f z v j v f [ v v v j v K K p 3 p s.2X9XV.y G +.  *.tXtXtXtXtXtXtXtXtXtXtXtXtXtXtXtX",
"tXtXtXtXtXtXtXtXy.  :.:.B 9.4X8Xv.G F { } [ [ v f f f f f f f f f f j [ [ [ [ 7 3 c.8X3X2.> +.   .tXtXtXtXtXtXtXtXtXtXtXtXtXtXtX",
"tXtXtXtXtXtXtXtXi.[ :.B x.0X6X5.< +. ...[ [ [ _ f f f f f f g f f [ j [ [ [ [ { { , [ D.0Xc.= ..$ = P.J.J.K.K.K.W y.tXtXtXtXtXtX",
"tXtXtXtXtXtXtXi.q :.V N.qXV.u.4. .+...{ [ [ v K f f f f f f f f f [ [ [ K [ [ ..[ X.f > m.qXb.= [ c T !._._._.}.W.U.tXtXtXtXtXtX",
"tXtXtXtXtXtXtXg :.B N.0Xc.$.v. . . ...{ [ [ [ v f f f f f f f f f f j [ [ [ [ [ [ K } } = l.wXn.= [ l I ~.!.!.W.}.J.r.tXtXtXtXtX",
"tXtXtXtXtXtX*.-.T v.0Xx.M c.v.D =.......[ [ _ f f f f f f f f f f [ K [ [ [ { [ [ ..[ [ +.= l.0Xz.= { & ^ ~.R.R.R.}.J.tXtXtXtXtX",
"tXtX  + tX>.+.P u.0Xb.V :.n.k.A =. ...{ ..[ v f f f f f f f f z [ f j [ [ [ { [ { [ [ [ f O.= M.qX8., j q Y.(.R.~.}.K.e.tXtXtXtX",
"tX  *.9   [ :.| 6XZ.A -.:.C.5.P =. . .{ [ [ [ [ f f f f f f f f f [ [ [ [ [ [ { [ { [ [ [ [ X.= H.7Xz g s D !.!.T.W.|.E tXtXtXtX",
"tX      ..4.m ;X4X$.-.&.9.A.+.$.*. ... .[ [ [ f v f f f f f f f [ j K [ { [ | [ [ [ [ [ [ f v f 4 5XA.= b h ^ W./.{.'.Q e.tXtXtX",
"tXtXtXa  .R f.9Xg.' :.%.c.A.D =. .&...[ [ [ [ _ K f K f f f f _ f [ [ [ [ [ [ ..{ [ [ [ f [ f } 3 q.qX8.4 k y ! ].@X.X^.Q tXtXtX",
"tXtXtX .j Y 2XS.R >.-.%.n.V.V :. . . .{ [ [ _ v v f j f f f f f f [ [ [ [ | [ { [ | [ [ [ f f f } = S.3X- v a ! (.#X+X_.K.&.tXtX",
"tXtXtXk H k.8X0.%.-.;.#.Z.M.B 1.&. . . . .[ { _ v f f j [ f f v [ [ [ [ [ { [ [ { | [ [ f [ f f v t @.0Xd.- b D Y.OX@X`.I./ tXtX",
"tXtX .$ Y 1XD.#.*.-.*.*.S.g.T -. . .[ { [ [ _ v K f f f f f f K f [ [ [ ..[ ..{ [ [ [ [ [ [ f f f v = H.1X= c d ~ '.oXoX.XW tXtX",
"tXtX[ F 9.7Xx.R >.-.*.1.D.9.` =.X. ... .[ [ [ f f v f f f f j [ j K [ [ [ [ [ | { [ [ [ [ f f f f f 4 8.9X3.4 x N [.#X$X#X/.w.tX",
"tXtX& C N.4X4.#.:.-.$.5.G.1.$.*.&. . ...[ [ [ [ _ [ f [ f [ f [ j [ [ [ ..[ [ [ [ [ [ [ [ f f f f f a u 3Xm.= b 2 oX&X#X$XOXe.tX",
"tXtXX ] D.S.' *.-.>.$.0.,X*.*.X.X. ...{ { _ _ [ K K j j f [ [ v [ [ [ [ [ ..[ [ [ [ [ [ [ K f f f f f - B.G.- c # [.%X%X$X.XW tX",
"tXtX; y.4Xb.Y -.>.-.%.g.D.L -.*.*.......{ _ [ [ j j j K f [ f K f [ [ [ [ [ [ { [ { [ [ [ j f f f g f ; h.8XX.r w ! '.oX+X}.Q tX",
"tXtX4 g.4Xf.R 1.-.>.%.k.D.C %.L  .X... .{ { [ K [ j j [ v f K v [ v [ [ [ { ..[ [ [ [ [ K [ f f f f f 5 <.4Xd.= x ( T.I.Y./ E tX",
"tXtXV v.3X5.%.:.;.-.%.k.8XS.m.g.=.....{ [ [ [ j K j K f K f v [ [ K [ [ [ ..{ [ [ [ [ [ v f f f f s f g s 8.6.P e I !.E.! / W tX",
"tX+ Z V.2X*.$.:.*.>.%.g.qX9XwX0Xz.Z X.{ { { [ f v [ f j K v [ f [ [ [ [ [ [ [ | { [ [ [ [ j g f f g f s d G ;.;.w U !.!.Y.).K.tX",
"tX. T Z.D.$.&.-.>.-.%.l.7XA.8XwXM.V X.| | _ [ [ [ f [ f [ f v K K [ [ [ ..{ [ { [ [ K [ f f f f g f g g s +.>.;.l U Q.!.Q.!.K.tX",
"tX  Y H.D.%.*.-.-.-.%.c.5X,X8X7Xb.Z X.{ { _ [ [ j K v v f f [ [ [ j [ [ | [ [ [ [ [ [ v j f f f f s f s a ..;.;.k F R.^.Q.(.K.tX",
"tX  Y S.D.| *.;.*.>.%.g.5X,X2X,Xx.J X.{ _ { [ [ _ v f K f [ [ f [ [ [ [ [ { [ ..[ [ [ K [ f f f f f g g a X.1.;.k F R.!.Q.(.L.tX",
"tX  Y Z.1X$.,.-.;.>.%.f.7X<X4X7Xb.G X.....[ [ [ v _ f v [ f [ [ [ [ [ [ [ { [ [ [ [ f [ f f f f f f s g g G $.:.s D R.^.T.(.P.tX",
"tX. A C.1X;.$.-.-.;.$.s.7X;X7XwXV.Z X.{ [ [ [ _ K j [ K f [ f f f [ [ [ [ [ [ [ [ [ [ f [ f f f g g g s u 8.0.J l U R.!.Q.(.K.tX",
"tX+ V m.4X6.%.1.;.-.&.5.6X8X8XwXZ.Z  .{ [ [ [ [ v [ [ f [ f f [ [ [ [ [ ..[ ..[ [ [ f [ f f f f f g f t t D.C.O x I Q.!.R.(.K.tX",
"tXtXM c.7Xf.R 1.*.>.,.1.6XwX7XG.g.K X...[ ..[ { [ f f [ f [ [ [ [ [ [ [ { [ [ [ [ [ [ [ [ f f g g f k r b 4Xz.= x ^ !.!.Q.).J.tX",
"tXtX, 9.7Xv.Y 1.;.>.,.-.G.C.1.| K  ...{ [ [ [ [ K f [ v [ f [ f [ [ [ [ [ [ [ [ [ [ f f f f f g f s j 4 2.6X2.- l ( !.R.Q.).J.tX",
"tXtXO &.3XA.R *.-.-.*.;.H.9.V @.X. .....{ ..[ [ v [ v K f [ [ [ [ [ [ [ [ [ [ [ [ [ [ f f f f f f g j - j.6Xr w a Y.!.!.Q.).Q tX",
"tXtXX S H.3X-.&.-.-.;.$.Z.v.B =. . . .{ [ [ [ [ K [ [ K K v K [ _ [ [ [ [ [ [ [ K v [ K z f f s g g g - F.F.= b F E.!.!.!.!.) tX",
"tXtXh B k.9Xg.R -.>.*.%.V.m.M =. .....{ [ [ [ [ v f [ v v _ v v [ [ [ [ [ [ [ [ [ [ v z f f f f f s t b 8Xj.= x ^ (.!.T.).L.e.tX",
"tXtX[ t &.6XZ.] ;.-.-.#.v.A.m =. . ...{ { { _ [ v [ f [ [ f _ [ [ [ [ [ [ [ [ [ [ f [ f f f f f s f = l.7Xu a e ( (.R.E.}.J.tXtX",
"tXtXtX* A N.7X5.#.:.>.#.g.S.L +. . ...{ [ _ [ [ K [ [ f f [ j _ [ [ [ [ [ [ [ [ [ [ v K f f f g g v > 2XC.= b 7 W.~.~.~.).Q tXtX",
"tXtXtXs K *.8XC.R -.-.$.5.A.1.| *.......{ [ [ [ K v [ v [ [ j v K [ [ [ [ [ [ v [ v j f f f f g v - s.9XO.t w I ~.!.!._.U.|.tXtX",
"tXtXtX*.% A C.8X5.$.:.&.;.A.s.Z +. .} { _ [ [ [ v _ j K K v _ [ [ [ [ [ [ [ [ K [ [ K f f f f f v - 3XA.= b 0 Y.(.~.W.}.Q a.tXtX",
"tXtXtXtXf [ | 5XS.L 1.;.$.b.n.1 =.....| { [ [ [ f [ K j j [ v K [ [ [ [ [ [ [ [ [ f K j f f f b = m.8Xz a e I !.R.!.!._.J.tXtXtX",
"tXtXtXtXf +.Z k.qXx.R 1.%.c.C.Z X...{ { | [ [ [ [ f v [ K f [ [ [ [ [ [ [ [ [ [ f [ f f f g } - 2.0Xk.= z 0 Y.!.R.T.}.J. XtXtXtX",
"tXtX  @ . >.1.3 A.qX5.$.*.5.Z.=.P +.| { { [ [ [ [ [ K j v [ [ [ [ [ [ [ [ [ K v [ v K f g } t u 8XA.= v & I !.R.!.!.).J.tXtXtXtX",
"tXtX  0 f   [ ,.G 3X6X*.%.:.V.s.B +.{ | { [ [ K f [ v [ v K f [ [ j [ [ [ [ [ [ K j j f } g 3 3X3Xu u s F R.!.R.~.}.K. XtXtXtXtX",
"tXtX[     p.t.{ P =.8X3X$.] x.z.B +. .[ [ [ _ v K f [ f [ f [ [ [ [ [ [ [ [ [ [ j j f } d > G.8XO.4 v h E.(.R.!.}.W.L.tXtXtXtXtX",
"tXtXtX_ *XtXtX..} J 4.7X4X..6.n...| } { ..[ [ [ v [ [ [ f [ f [ K [ [ [ [ v K f [ v } 4 5 2X8X@.- {   E L.P.P.P.W.Q  XtXtXtXtXtX",
"tXtXtXtXtXtXtXtXh  .G :.5X7Xu.u.6.K X.} [ { v [ [ v f [ v [ f [ v [ [ f [ f [ [ [ j - 3.5X5X@., }   *XtXtXtXtXtXtXtXtXtXtXtXtXtX",
"tXtXtXtXtXtXtXtXt.a +.d ` F.9XA.7.1 ...... ._ z f K [ f K j [ [ [ [ [ [ [ { { f 4 6 n.0XF.t 5  .  *XtXtXtXtXtXtXtXtXtXtXtXtXtXtX",
"tXtXtXtXtXtXtXtXtXt.0 -.[ 4 x.9X3Xs.G 6 J [ { { { [ [ j K v v [ [ { { { [ p 3 7 d.1X0XM.- [ j   =XtXtXtXtXtXtXtXtXtXtXtXtXtXtXtX",
"tXtXtXtXtXtXtXtXtXt.  f *.X.B &.F.0XD.k. .3 , 5 d f [ { { { { [ f i 6 , , } h.,X0XD.@.1 *.o   =XtXtXtXtXtXtXtXtXtXtXtXtXtXtXtXtX",
"tXtXtXtXtXtXtXtX X  9 9   h c ..1 8.D.9X3XZ.j.<.d 3 > - > - > > 6 f <.s.C.3X8XD.8.> K v   >.*XtXtXtXtXtXtXtXtXtXtXtXtXtXtXtXtXtX",
"tXtXtXtXtXtXtX*X   .a   *X*X[ o v 4 > 2.C.G.7X5XD.A.C.n.M.M.n.B.S.1X6X7X2XB.3.2 H }   + *XtXtXtXtXtXtXtXtXtXtXtXtXtXtXtXtXtXtXtX",
"tXtXtXtXtXtXtX=Xt.    t.tXtXtXi.*.X.X., > Z 6.M.A.,XG.2X3X3X2X,XS.B.j.2.H n L c     k. XtXtXtXtXtXtXtXtXtXtXtXtXtXtXtXtXtXtXtXtX",
"tXtXtXtXtXtXtXtX*Xi.K tXtXtXtXtXi.  s +.l q 4 M =   | }  . .[ G C M C H a X   a *X XtXtXtXtXtXtXtXtXtXtXtXtXtXtXtXtXtXtXtXtXtXtX",
"tXtXtXtXtXtXtXtXtXtXtXtXtXtXtXtXt.  0 @ >.w..   } i.  r : 5 : 9 X       v *X-Xi.tXtXtXtXtXtXtXtXtXtXtXtXtXtXtXtXtXtXtXtXtXtXtXtX",
"tXtXtXtXtXtXtXtXtXtXtXtXtXtXtXtXt.  :.  t.g.:X>XrXrXf 1.v v  .:.i.=X>X-XtXtXtXtXtXtXtXtXtXtXtXtXtXtXtXtXtXtXtXtXtXtXtXtXtXtXtXtX",
"tXtXtXtXtXtXtXtXtXtXtXtXtXtXtXtXt       tXtXtXtXtXtXtXtXtXtXtXtXtXtXtXtXtXtXtXtXtXtXtXtXtXtXtXtXtXtXtXtXtXtXtXtXtXtXtXtXtXtXtXtX",
"tXtXtXtXtXtXtXtXtXtXtXtXtXtXtXtXtXtXtXtXtXtXtXtXtXtXtXtXtXtXtXtXtXtXtXtXtXtXtXtXtXtXtXtXtXtXtXtXtXtXtXtXtXtXtXtXtXtXtXtXtXtXtXtX",
"tXtXtXtXtXtXtXtXtXtXtXtXtXtXtXtXtXtXtXtXtXtXtXtXtXtXtXtXtXtXtXtXtXtXtXtXtXtXtXtXtXtXtXtXtXtXtXtXtXtXtXtXtXtXtXtXtXtXtXtXtXtXtXtX",
"tXtXtXtXtXtXtXtXtXtXtXtXtXtXtXtXtXtXtXtXtXtXtXtXtXtXtXtXtXtXtXtXtXtXtXtXtXtXtXtXtXtXtXtXtXtXtXtXtXtXtXtXtXtXtXtXtXtXtXtXtXtXtXtX"
};
