/* XPM */
static char *result[] = {
/* columns rows colors chars-per-pixel */
"64 64 218 2 ",
"   c #000000",
".  c #0C0603",
"X  c #140900",
"o  c #171407",
"O  c #000019",
"+  c #171615",
"@  c #0D1016",
"#  c #240F17",
"$  c #2A271C",
"%  c #322C18",
"&  c #32321E",
"*  c #292104",
"=  c #000025",
"-  c #00012B",
";  c #000926",
":  c #181E2A",
">  c #000132",
",  c #000C33",
"<  c #00003B",
"1  c #000B3B",
"2  c #08003D",
"3  c #011334",
"4  c #051A36",
"5  c #1C2534",
"6  c #142339",
"7  c #1A2539",
"8  c #0B233D",
"9  c #242424",
"0  c #2B2B2B",
"q  c #292928",
"w  c #3C3B2C",
"e  c #373628",
"r  c #232835",
"t  c #2A2E36",
"y  c #252C39",
"u  c #2D3035",
"i  c #2D323B",
"p  c #27313B",
"a  c #343434",
"s  c #3B3A34",
"d  c #34363A",
"f  c #3D3D3D",
"g  c #37383B",
"h  c #2E302A",
"j  c #413F3D",
"k  c #413E33",
"l  c #413D29",
"z  c #3F403D",
"x  c #484428",
"c  c #434235",
"v  c #43413D",
"b  c #4A4738",
"n  c #000241",
"m  c #001B43",
"M  c #001245",
"N  c #110058",
"B  c #0C2644",
"V  c #012449",
"C  c #042647",
"Z  c #182B46",
"A  c #1D324E",
"S  c #1C3350",
"D  c #242B4C",
"F  c #242947",
"G  c #2C3343",
"H  c #273348",
"J  c #333944",
"K  c #3B3D43",
"L  c #343C4B",
"P  c #373C49",
"I  c #22295C",
"U  c #222954",
"Y  c #2C3B52",
"T  c #263751",
"R  c #353F51",
"E  c #000067",
"W  c #000073",
"Q  c #00007C",
"!  c #181B70",
"~  c #241D78",
"^  c #212B69",
"/  c #293474",
"(  c #273070",
")  c #162A7A",
"_  c #3F4043",
"`  c #3D424B",
"'  c #3B4251",
"]  c #364152",
"[  c #424242",
"{  c #484743",
"}  c #4B4944",
"|  c #44464B",
" . c #4B4B4B",
".. c #47484A",
"X. c #504F4A",
"o. c #514D43",
"O. c #555245",
"+. c #54524D",
"@. c #5C5848",
"#. c #444953",
"$. c #4B4D54",
"%. c #434854",
"&. c #4E5155",
"*. c #545555",
"=. c #595753",
"-. c #5A5955",
";. c #555558",
":. c #5C5B59",
">. c #575859",
",. c #504F50",
"<. c #625D4B",
"1. c #605E59",
"2. c #6B644D",
"3. c #67614C",
"4. c #656154",
"5. c #6D695A",
"6. c #696556",
"7. c #736D58",
"8. c #7A7254",
"9. c #76705C",
"0. c #7B745C",
"q. c #777053",
"w. c #5A5A64",
"e. c #46496F",
"r. c #5D627B",
"t. c #6C6C6C",
"y. c #676768",
"u. c #7C7961",
"i. c #737373",
"p. c #7C7C7C",
"a. c #6B6E77",
"s. c #837B5B",
"d. c #847A58",
"f. c #847C61",
"g. c #887F64",
"h. c #8C825D",
"j. c #90855E",
"k. c #8C8363",
"l. c #958962",
"z. c #9A8D64",
"x. c #988E69",
"c. c #928866",
"v. c #9C916A",
"b. c #A2956A",
"n. c #A6996C",
"m. c #AB9D6D",
"M. c #A19366",
"N. c #AB9E72",
"B. c #B2A26E",
"V. c #AEA071",
"C. c #B4A572",
"Z. c #BBAB75",
"A. c #BBAC77",
"S. c #C3B379",
"D. c #CCBA7D",
"F. c #C6B479",
"G. c #D1BD7E",
"H. c #C1AE77",
"J. c #000083",
"K. c #00018A",
"L. c #000A87",
"P. c #001689",
"I. c #0E078B",
"U. c #152B8A",
"Y. c #253383",
"T. c #29368E",
"R. c #2A398F",
"E. c #273688",
"W. c #243690",
"Q. c #283790",
"!. c #2B3B93",
"~. c #263996",
"^. c #303391",
"/. c #0C4B93",
"(. c #354195",
"). c #3B4695",
"_. c #384898",
"`. c #324B97",
"'. c #33649F",
"]. c #295FA4",
"[. c #316AA5",
"{. c #1667AE",
"}. c #434C97",
"|. c #485093",
" X c #777989",
".X c #486EA2",
"XX c #7F8182",
"oX c #5499B9",
"OX c #488AB3",
"+X c #589AC0",
"@X c #5CA9C7",
"#X c #66ACC4",
"$X c #6EB6CC",
"%X c #70BAD2",
"&X c #76C5DD",
"*X c #838383",
"=X c #8B8C8C",
"-X c #979797",
";X c #BCB182",
":X c #B2B2B2",
">X c #A4A5A5",
",X c #CCBC83",
"<X c #C1B584",
"1X c #D1BE80",
"2X c #D5C281",
"3X c #DAC683",
"4X c #DDC984",
"5X c #DCCA89",
"6X c #E1CC86",
"7X c #E2CE89",
"8X c #E6D18A",
"9X c #EAD58B",
"0X c #EED98E",
"qX c #F2DB8E",
"wX c #F4DC90",
"eX c #FAE091",
"rX c #C4C4C5",
"tX c None",
/* pixels */
"tXtXtXtXtXtXtXtXtXtXtXtXtXtXtXtXtXtXtXtXtXtXtXtXtXtXtXtXtXtXtXtXtXtXtXtXtXtXtXtXtXtXtXtXtXtXtXtXtXtXtXtXtXtXtXtXtXtXtXtXtXtXtXtX",
"tXtXtXtXtXtXtXtXtXtXtXtXtXtXtXtXtXtXtXtXtXtXtXtXtXtXtXtXtXtXtXtXtXtXtXtXtXtXtXtXtXtXtXtXtXtXtXtXtXtXtXtXtXtXtXtXtXtXtXtXtXtXtXtX",
"tXtXtXtXtXtXtXtXtXtXtXtXtXtXtXtXtXtXtXtXtXtXtXtXtXtXtXtXtXtXtXtXtXtXtXtXtXtXtXtXtXtXtXtXtXtXtXtXtXtXtXtXtXtXtXtXtXtXtXtXtXtXtXtX",
"tXtXtXtXtXtXtXtXtXtXtXtXtXtXtXtXtXtXtXtXtXtXtXtXtXtXtXtXtXtXtXtXtXtXtXtXtXtXtXtXtXtXtXtX      0 tXtXtXtXtXtXtXtXtXtXtXtXtXtXtXtX",
"tXtXtXtXtXtXtXtXtXtXtXtXtXtXtXtXtXtXtXtXtXtXtXtXtXtXtXtX-X>X=Xi.:. .[ v 1.s rXrX>X:Xp.t.  :.  y.tXtXtXtXtXtXtXtXtXtXtXtXtXtXtXtX",
"tXtXtXtXtXtXtXtXtXtXtXtXtXtXtXtXtXtXtXtXtXtXtXtXi.-Xp.v       X 9 : 5 : r   i. .  . =.>.@ 0   t.tXtXtXtXtXtXtXtXtXtXtXtXtXtXtXtX",
"tXtXtXtXtXtXtXtXtXtXtXtXtXtXtXtXtXtXtXtXtXtXXX*Xg   X a H V m C G [ X.X...|   - 1 6 9 k =.f   i.tXtXtXtXtXK i.*XtXtXtXtXtXtXtXtX",
"tXtXtXtXtXtXtXtXtXtXtXtXtXtXtXtXtXtXtXtXp.*X    k L n H 2.l.B.F.G.2X2X2X3XG.D.Z.M.2.Z > , o.X.*.i.tXtXtXt.    y.=XtXtXtXtXtXtXtX",
"tXtXtXtXtXtXtXtXtXtXtXtXtXtXtXtXtXtXtX*X:   } H < 3.B.3X6X4XG.S.C.n.M.M.m.B.Z.D.4X8X2XC.7.- 4 k o { *XXX  a  .  *XtXtXtXtXtXtXtX",
"tXtXtXtXtXtXtXtXtXtXtXtXtXtXtXtXtXp.>.  v K > 8.D.8X3XC.h.<.K 6 > - - > - > 3 d <.h.Z.3X8XD.q.M | k a   9 9   p.tXtXtXtXtXtXtXtX",
"tXtXtXtXtXtXtXtXtXtXtXtXtXtXtXtX=X  o X.1 @.D.9X,Xh.{ , , 6 i K [ [ { [ [ [ _ d 6 1 4 { k.D.0XF.+.B } *.K   i.tXtXtXtXtXtXtXtXtX",
"tXtXtXtXtXtXtXtXtXtXtXtXtXtXtX=X  v [ - M.qXG.d.7 3 i j { { { [ [ [ v [ v [ [ [ { { [ J 6 G s.4X9Xz.m { -.q t.tXtXtXtXtXtXtXtXtX",
"tXtXtXtXtXtXtXtXtXtXtXtXtXtX*X  } r p D.qXb.7 4 f [ { [ [ K v j [ v v [ f [ _ f j [ { ..{  .1 7.A.9XF.` d *.a t.tXtXtXtXtXtXtXtX",
"tXtXtXtXtXtXtXtXtXtXtXtXtX*X  } , O.4X5X3.- j [ [ j [ [ [ [ [ [ [ [ K [ _ j j [ [ [ [ [ { X.P 2.u.0.7X5X:.p { h tXtXtXtXtXtXtXtX",
"tXtXtXtXtX XQ W.P.P.P.L.E   { - <.8XG.7 4 } j _ [ K [ j [ v [ [ [ v K f v [ K f [ [ [ | | { | ..b.6. .4X8X4.J }  .tXtX*X_ tXtXtX",
"tXtXtXtXtXJ.W.}.!.!.).E.0 { 3 O.8X1X- a } f f [ j [ [ [ [ [ K [ z _ v [ K v v [ j [ [ { { | +.B x.x.] $.3X8X=.P [ t.p.    | tXtX",
"tXtXtXtX XJ.}.~.!.!.T.7 s t u 4X3X3 s { g v f [ [ [ v [ [ [ [ v _ v [ f f [ [ f [ [ [ | | { +.B s.m.:.#.*.6X3XJ ,.[   f q   tXtX",
"tXtXtXtXJ._.!.!.!.!.^ & j = A.7Xu p } d [ K v K K [ [ [ [ [ K [ [ _ j [ [ v K [ [ [ [ [ { { +.P =.Z.5.*.$.5.9XA.1 1.;.. @   tXtX",
"tXtXtX XJ.|.Q.R.!.E.q v - k.qX2.- } s f f f [ f _ v [ [ [ [ [ [ [ f K v j _ K v [ [ [ { { |  .+.Z C.k.#.:.R x.wXk.Z @.f tXtXtXtX",
"tXtXtXJ._.!.R.!.!.U e d v 8Xm.O o.g _ f f f [ [ [ [ [ [ [ [ [ [ [ [ [ v K v v _ [ [ [ | { .. .=.m v.n.$.;.:.R S.6X' [ v tXtXtXtX",
"tXtXa.J.}.W.!.!./ r b = Z.6X- j s s f f z K v [ [ [ [ [ [ [ [ [ j v _ v f [ K j z [ [ [ { ....+.Z s.Z.=.&.:.&.6.8XN.A % *.tXtXtX",
"tXtX|.U.(.!.!.!.I e y O.9Xd.- v g f f f K v j [ [ [ [ [ [ [ [ [ [ K v K [ v v [ [ [ [ { { |  .+.| 1.S.5.$.-.>.R C.8X=.K s tXtXtX",
"tXtXJ.).!.~.~.Q.r b = Z.G.- f g f K f f v K _ [ [ [ [ [ [ [ [ v [ [ [ f [ K [ _ [ [ [ | {  . .$.X.L S.f.#.-.-.$.5.8XN.A * tXtXtX",
"tXtXQ }.W.!.`.( e d t 6Xz.- j g s f f j K v f [ [ [ [ [ [ [ [ K f [ f [ j v K j _ [ [ { ..{  . .=.m Z.x.#.>.-.>.] A.6X&.r { tXtX",
"tXe.L.).E.!._.I x - j.6X} t f s f f f j j [ K v [ [ [ [ [ [ [ [ [ [ K v [ f [ v [ [ [ [ { .. . .-.M m.m.%.>.>.:.] k.9Xk.B h tXtX",
"tX) !.!.!.~.W.F b = F.S.- s s f g K f f f [ [ [ [ [ [ [ [ [ [ [ [ f v _ f [ [ K _ [ { | {  . . .1.B x.Z.$.*.>.-.$.=.3XH.S X tXtX",
"tXQ ).Q.!.!.Y.e a r 6Xz.= j f g g f f f K v [ [ [ [ [ [ [ [ [ [ [ [ f [ [ v j [ v [ | { |  . . .=.V 7.S.*.*.-.-.>.R Z.3X&.O tXtX",
"tXJ.).Q.Q.~.( l - 2.6X2.4 j g f f f f j v K j [ [ [ { [ [ [ [ f [ f [ f f K [ f [ [ [ [ [ {  .` | <.C.1X*.*.*.>.:.Y x.7X9., tXtX",
"tXJ.).Q.!.!.^ x = j.3Xb y f s g f f f f [ [ [ [ [ [ | [ [ [ [ [ [ f f [ f K v [ [ [ [ [ .. .P k.D.8XwX6X1.*.*.*.:.] s.6Xl.m tXtX",
"tXK.).Q.Q.!.I x O C.D.y t f f g f f j K [ f v [ [ | [ { [ [ [ _ [ [ [ [ [ v v K [ [ { | { X.7 Z.wX9X9X6X5.&.-.>.:.%.6.4Xn.C + tX",
"tXK.!.Q.!.Q.U l P 0.8.a s s g f f f f j z K [ [ [ [ | [ [ [ [ [ f [ f f j f [ f _ [ | { .. .F m.wX7X<X3X0.$.-.*.:.&.>.G.C.S X tX",
"tXP.).Q.!.T.F k :.$.G s g s g f f f f f [ [ [ [ [ { [ [ [ [ [ j v K [ v K v K [ v [ [ { [ +.F n.7X3X<X6Xf.#.>.>.-.*.$.D.Z.Y   tX",
"tXL.(.Q.!.T.F k ;.1.X.s g s g f f f f [ K v [ [ | [ { [ [ [ [ v [ j [ f f f [ [ [ [ [ | {  .J x.,X2X,X7Xk.#.=.>.=.;.| D.H.Y   tX",
"tXK.(.Q.!.Q.F k >.*.| d g d f s f f f f v [ [ | [ { [ [ [ [ [ K v _ v K K v [ f f [ [ { { X.Z b.7X9X<X5Xk.%.>.>.>.*.#.D.H.Y   tX",
"tXK.(.Q.!.!.D l ;.>.+.s f s f f f f f [ K [ [ [ { [ [ | [ [ [ [ K f K v K f j _ [ [ [ { | +.V b.qX9X;X5Xc.%.-.*.:.$.$.D.Z.T X tX",
"tXK.(.E.^.!.D e >.&.H a f g g f f f f [ v [ [ [ [ | { [ [ [ [ v v [ v f v v K v _ [ [ [ { +.6 x.9XwX9XqXk.%.-.>.:.$.=.1XV.Z + tX",
"tXQ ( ! Y.!.^ l ` 4.8.f g s f f s f [ j [ [ [ [ | [ { { [ [ j [ [ _ v K f j K [ [ [ [ | {  . .=.k.n.F.9Xk.%.-.>.:.%.6.3Xv.V tXtX",
"tXE / U.I.^.^ x - d.4X<.5 f s f K f v K [ [ [ { [ [ | [ [ [ [ K f v f f [ f f v z _ [ { {  . . .L | V D.k.#.*.>.:.R f.6Xk.4 tXtX",
"tXW |.oX+X].! k y b 6Xh.- f f f f f f [ [ [ [ [ { [ [ { [ [ [ [ [ f f [ f [ _ v v [ [ [ | .. .*.*.=.L D.f.$.*.>.:.Y b.3Xy.; tXtX",
"tXW .X$X%X%X[.# b - G.B.- s f f f f f [ [ [ [ [ | [ | [ [ [ [ v f [ f [ f f v K [ [ [ | {  . . .*.*.*.D.0.$.-.-.*.` S.D.] X tXtX",
"tXe.OX$X#X&X+X< x - B.3Xt s f f f f v [ [ [ [ [ [ { [ [ [ [ [ K [ v f _ K v K [ j [ [ { |  . .&.*.$.4.,X5.&.>.:.#.4.4XN.C % tXtX",
"tX;./.$X$X#X[.N c 4 3.9X8.4 j f f f K f v [ [ { | [ [ | [ [ [ f j K j f f v v f _ [ [ | { .. . .=.' 9.D.1.&.>.-.R x.7X9.H v tXtX",
"tXtXW .XoXoX'.~ d b - 2XH.= v f f [ [ [ _ [ | [ [ { [ { [ [ [ [ [ f f f j f f j K [ [ [  . . .$.=.H k.S.*.*.-.*.#.D.D.Y q $.tXtX",
"tXtX/ I.`.#XOXE.D c - s.9X@.t v f f f [ [ [ [ { | [ { [ [ [ [ f f [ f f K z f _ v [ [ { {  . . .:.Z v.Z.#.*.-.#.0.8Xk.T l tXtXtX",
"tXtX&.J.).oX#X(.! a v - 3XS.= b g j j [ [ [ [ { [ { [ [ [ v [ v _ f f f f f f f [ [ [ { { |  .+.-.V N.n.#.*.-.] F.G.Y j X.tXtXtX",
"tXtXtXW ^.OX@X].! y c 3 8.0Xq.3 } f K [ [ [ | [ | [ | [ [ [ K _ v f f f f _ f v f [ [ | {  . .$.-.H A.k.#.:.' k.9Xf.R X.a tXtXtX",
"tXtXtXe.W '.{./.W.^ h b - A.6X4 v [ f K [ [ [ { [ { [ [ [ [ v f f f f f f f f f f [ [ [ |  . . .$.$.A.9.$.>.#.4XS.m 4. .      tX",
"tXtXtXtXE }.W.E.!.!.D s d z 6XS.- o.[ f [ [ | [ | [ { [ [ [ [ K f f f f f f f f _ v [ { { |  .=.P 9.C.:.-.T Z.5X%.:.[   9 $.  tX",
"tXtXtXtXe.K.}.!.!.!.E.q v , q.0Xv.= O.[ f [ [ [ | [ [ [ [ f [ j f f f f f f f f f [ [ [ {  . .=.D k.b.:.V b.0Xu.R +.:.tX+   tXtX",
"tXtXtXtXtXQ _.!.!.!.!.^ & { - z.0Xl.- O.[ [ | { [ [ [ [ [ [ f f f f f s f f f f j K | { | {  .=.H v.c.M l.0Xx.T =.*.tXtXtXtXtXtX",
"tXtXtXtXtXr.J.}.W.!.Q.~.U w [ - n.qXl.- o.{ [ { | { [ [ [ f v f f f f f f f f f K v [ { { |  .$.$.v.$.c.qXN.B 1.g tXtXtXtXtXtXtX",
"tXtXtXtXtXtXU.T.|._._._.!.D c { = b.0Xm.> g  .[ [ { [ [ [ v K K f f f f f f f f f [ [ [ { | X. .4.u.V.0XN.C :.q t.tXtXtXtXtXtXtX",
"tXtXtXtXtXtXr.W J.K.J.J.J.P.= % | = l.0X,X[ , } [ [ [ [ v [ v f f f f f f f f f j f [ { {  .*.< 5.7X9Xx.B -.[ i.tXtXtXtXtXtXtXtX",
"tXtXtXtXtXtXtXtXtXtXtXtXtXtXtX .  +.> 2.3X8Xl.1 7 [ [ [ [ v f f f g f f f f f f [ [ [ { [ G G x.9X5X0.B w.:.  y.tXtXtXtXtXtXtXtX",
"tXtXtXtXtXtXtXtXtXtXtXtXtXtXtXtX*.  +.p r N.0X2Xs.p 3 p g _ [ v v [ v v v v v z _ f G 4 J h.2X0XA.| J *.a q 0   { i.tXtXtXtXtXtX",
"tXtXtXtXtXtXtXtXtXtXtXtXtXtXtXtXtX:.  s  .1 <.F.9X3Xn.6.g 3 3 4 7 r r 7 5 6 4 , 3 i 2.n.3X9XF.4.<  .h 1.t.  + z     tXtXtXtXtXtX",
"tXtXtXtXtXtXtXtXtXtXtXtXtXtXtXtXtXtXtXf   v [ < <.C.6X9X2XC.j.q.<.O.O.b <.2.q.j.C.1X8X6XC.<.- K X.a y.tXtXi.  9   *XtXtXtXtXtXtX",
"tXtXtXtXtXtXtXtXtXtXtXtXtXtXtXtXtXtXtXtXy.9   v P < K d.Z.3X6X6X4X3X3X4X6X6X4X4X1XA.s.G < i -.X.t.t.tXtXtXtXp.  =XtXtXtXtXtXtXtX",
"tXtXtXtXtXtXtXtXtXtXtXtXtXtXtXtXtXtXtXtXtXtXt.g   % g B < B +.q.h.l.z.x.j.d.2.}   O > + % { >.  *XtXtXtXtXtXtXp.tXtXtXtXtXtXtXtX",
"tXtXtXtXtXtXtXtXtXtXtXtXtXtXtXtXtXtXtXtXtXtXtXtXt.y.$ . o + : 3 > < < < < > 6 O t.l X :.XX:.a 0  .tXtXtXtXtXtXtXtXtXtXtXtXtXtXtX",
"tXtXtXtXtXtXtXtXtXtXtXtXtXtXtXtXtXtXtXtXtXtXtXtXtXtXtXt.t.-.s o             $   rX:X-XtXtXi.  @   g.tXtXtXtXtXtXtXtXtXtXtXtXtXtX",
"tXtXtXtXtXtXtXtXtXtXtXtXtXtXtXtXtXtXtXtXtXtXtXtXtXtXtXtXtXtXtXtXtXtXtXtXtXtXtXtXtXtXtXtXtX-Xa.-Xp.*XtXtXtXtXtXtXtXtXtXtXtXtXtXtX",
"tXtXtXtXtXtXtXtXtXtXtXtXtXtXtXtXtXtXtXtXtXtXtXtXtXtXtXtXtXtXtXtXtXtXtXtXtXtXtXtXtXtXtXtXtXtXtXtXtXtXtXtXtXtXtXtXtXtXtXtXtXtXtXtX",
"tXtXtXtXtXtXtXtXtXtXtXtXtXtXtXtXtXtXtXtXtXtXtXtXtXtXtXtXtXtXtXtXtXtXtXtXtXtXtXtXtXtXtXtXtXtXtXtXtXtXtXtXtXtXtXtXtXtXtXtXtXtXtXtX"
};
